<mxfile>
    <diagram id="SyKutBt3nfU6beHUSu1z" name="Page-1">
        <mxGraphModel dx="1757" dy="1748" grid="1" gridSize="10" guides="1" tooltips="1" connect="1" arrows="1" fold="1" page="1" pageScale="1" pageWidth="827" pageHeight="1169" math="0" shadow="0">
            <root>
                <mxCell id="0"/>
                <mxCell id="1" parent="0"/>
                <mxCell id="9" value="circle" style="swimlane;fontStyle=0;childLayout=stackLayout;horizontal=1;startSize=26;fillColor=#a20025;horizontalStack=0;resizeParent=1;resizeParentMax=0;resizeLast=0;collapsible=1;marginBottom=0;shadow=1;strokeColor=#6F0000;fontColor=#ffffff;" parent="1" vertex="1">
                    <mxGeometry x="-190" y="-470" width="140" height="78" as="geometry">
                        <mxRectangle x="-170" y="-46" width="100" height="26" as="alternateBounds"/>
                    </mxGeometry>
                </mxCell>
                <mxCell id="10" value="name" style="text;strokeColor=none;fillColor=none;align=left;verticalAlign=top;spacingLeft=4;spacingRight=4;overflow=hidden;rotatable=0;points=[[0,0.5],[1,0.5]];portConstraint=eastwest;" parent="9" vertex="1">
                    <mxGeometry y="26" width="140" height="26" as="geometry"/>
                </mxCell>
                <mxCell id="11" value="description" style="text;strokeColor=none;fillColor=none;align=left;verticalAlign=top;spacingLeft=4;spacingRight=4;overflow=hidden;rotatable=0;points=[[0,0.5],[1,0.5]];portConstraint=eastwest;" parent="9" vertex="1">
                    <mxGeometry y="52" width="140" height="26" as="geometry"/>
                </mxCell>
                <mxCell id="12" value="" style="endArrow=none;startArrow=diamond;endFill=0;startFill=1;html=1;verticalAlign=bottom;labelBackgroundColor=none;strokeWidth=1;startSize=8;endSize=8;" parent="1" source="64" target="45" edge="1">
                    <mxGeometry width="160" relative="1" as="geometry">
                        <mxPoint x="890" y="2.8275862068965125" as="sourcePoint"/>
                        <mxPoint x="1076" y="393" as="targetPoint"/>
                    </mxGeometry>
                </mxCell>
                <mxCell id="13" value="0,n" style="edgeLabel;html=1;align=center;verticalAlign=middle;resizable=0;points=[];" parent="12" vertex="1" connectable="0">
                    <mxGeometry x="-0.675" relative="1" as="geometry">
                        <mxPoint as="offset"/>
                    </mxGeometry>
                </mxCell>
                <mxCell id="14" value="0,n" style="edgeLabel;html=1;align=center;verticalAlign=middle;resizable=0;points=[];" parent="12" vertex="1" connectable="0">
                    <mxGeometry x="0.85" relative="1" as="geometry">
                        <mxPoint x="-8" as="offset"/>
                    </mxGeometry>
                </mxCell>
                <mxCell id="15" value="event" style="swimlane;fontStyle=0;childLayout=stackLayout;horizontal=1;startSize=26;horizontalStack=0;resizeParent=1;resizeParentMax=0;resizeLast=0;collapsible=1;marginBottom=0;shadow=1;strokeColor=#006EAF;fillColor=#1ba1e2;fontColor=#ffffff;" parent="1" vertex="1">
                    <mxGeometry x="-483" y="90.00000000000023" width="140" height="104" as="geometry">
                        <mxRectangle x="110" y="120" width="50" height="26" as="alternateBounds"/>
                    </mxGeometry>
                </mxCell>
                <mxCell id="100" value="name" style="text;strokeColor=none;fillColor=none;align=left;verticalAlign=top;spacingLeft=4;spacingRight=4;overflow=hidden;rotatable=0;points=[[0,0.5],[1,0.5]];portConstraint=eastwest;" parent="15" vertex="1">
                    <mxGeometry y="26" width="140" height="26" as="geometry"/>
                </mxCell>
                <mxCell id="99" value="description" style="text;strokeColor=none;fillColor=none;align=left;verticalAlign=top;spacingLeft=4;spacingRight=4;overflow=hidden;rotatable=0;points=[[0,0.5],[1,0.5]];portConstraint=eastwest;" parent="15" vertex="1">
                    <mxGeometry y="52" width="140" height="26" as="geometry"/>
                </mxCell>
                <mxCell id="83" value="date" style="text;strokeColor=none;fillColor=none;align=left;verticalAlign=top;spacingLeft=4;spacingRight=4;overflow=hidden;rotatable=0;points=[[0,0.5],[1,0.5]];portConstraint=eastwest;" parent="15" vertex="1">
                    <mxGeometry y="78" width="140" height="26" as="geometry"/>
                </mxCell>
                <mxCell id="16" value="" style="endArrow=none;startArrow=diamond;endFill=0;startFill=1;html=1;verticalAlign=bottom;labelBackgroundColor=none;strokeWidth=2;startSize=8;endSize=8;" parent="1" source="15" target="101" edge="1">
                    <mxGeometry width="160" relative="1" as="geometry">
                        <mxPoint x="7.288732394365979" y="390.0000000000002" as="sourcePoint"/>
                        <mxPoint x="180" y="299.65116279069775" as="targetPoint"/>
                    </mxGeometry>
                </mxCell>
                <mxCell id="17" value="0,n&amp;nbsp;" style="edgeLabel;html=1;align=center;verticalAlign=middle;resizable=0;points=[];" parent="16" vertex="1" connectable="0">
                    <mxGeometry x="0.9035" relative="1" as="geometry">
                        <mxPoint x="-6" as="offset"/>
                    </mxGeometry>
                </mxCell>
                <mxCell id="18" value="0,1" style="edgeLabel;html=1;align=center;verticalAlign=middle;resizable=0;points=[];" parent="16" vertex="1" connectable="0">
                    <mxGeometry x="-0.8414" relative="1" as="geometry">
                        <mxPoint x="7" as="offset"/>
                    </mxGeometry>
                </mxCell>
                <mxCell id="19" value="user" style="swimlane;fontStyle=0;childLayout=stackLayout;horizontal=1;startSize=26;fillColor=#a20025;horizontalStack=0;resizeParent=1;resizeParentMax=0;resizeLast=0;collapsible=1;marginBottom=0;shadow=1;strokeColor=#6F0000;fontColor=#ffffff;" parent="1" vertex="1">
                    <mxGeometry x="-90" y="-230" width="140" height="130" as="geometry">
                        <mxRectangle x="110" y="120" width="50" height="26" as="alternateBounds"/>
                    </mxGeometry>
                </mxCell>
                <mxCell id="20" value="nickname" style="text;strokeColor=none;fillColor=none;align=left;verticalAlign=top;spacingLeft=4;spacingRight=4;overflow=hidden;rotatable=0;points=[[0,0.5],[1,0.5]];portConstraint=eastwest;" parent="19" vertex="1">
                    <mxGeometry y="26" width="140" height="26" as="geometry"/>
                </mxCell>
                <mxCell id="21" value="email" style="text;strokeColor=none;fillColor=none;align=left;verticalAlign=top;spacingLeft=4;spacingRight=4;overflow=hidden;rotatable=0;points=[[0,0.5],[1,0.5]];portConstraint=eastwest;" parent="19" vertex="1">
                    <mxGeometry y="52" width="140" height="26" as="geometry"/>
                </mxCell>
                <mxCell id="23" value="login" style="text;strokeColor=none;fillColor=none;align=left;verticalAlign=top;spacingLeft=4;spacingRight=4;overflow=hidden;rotatable=0;points=[[0,0.5],[1,0.5]];portConstraint=eastwest;" parent="19" vertex="1">
                    <mxGeometry y="78" width="140" height="26" as="geometry"/>
                </mxCell>
                <mxCell id="24" value="password" style="text;strokeColor=none;fillColor=none;align=left;verticalAlign=top;spacingLeft=4;spacingRight=4;overflow=hidden;rotatable=0;points=[[0,0.5],[1,0.5]];portConstraint=eastwest;" parent="19" vertex="1">
                    <mxGeometry y="104" width="140" height="26" as="geometry"/>
                </mxCell>
                <mxCell id="25" value="profile" style="swimlane;fontStyle=0;childLayout=stackLayout;horizontal=1;startSize=26;fillColor=#a20025;horizontalStack=0;resizeParent=1;resizeParentMax=0;resizeLast=0;collapsible=1;marginBottom=0;shadow=1;strokeColor=#6F0000;fontColor=#ffffff;" parent="1" vertex="1">
                    <mxGeometry x="170" y="-217.00000000000006" width="140" height="104" as="geometry">
                        <mxRectangle x="110" y="120" width="50" height="26" as="alternateBounds"/>
                    </mxGeometry>
                </mxCell>
                <mxCell id="26" value="firstname" style="text;strokeColor=none;fillColor=none;align=left;verticalAlign=top;spacingLeft=4;spacingRight=4;overflow=hidden;rotatable=0;points=[[0,0.5],[1,0.5]];portConstraint=eastwest;" parent="25" vertex="1">
                    <mxGeometry y="26" width="140" height="26" as="geometry"/>
                </mxCell>
                <mxCell id="27" value="lastname&#10;" style="text;strokeColor=none;fillColor=none;align=left;verticalAlign=top;spacingLeft=4;spacingRight=4;overflow=hidden;rotatable=0;points=[[0,0.5],[1,0.5]];portConstraint=eastwest;" parent="25" vertex="1">
                    <mxGeometry y="52" width="140" height="26" as="geometry"/>
                </mxCell>
                <mxCell id="28" value="birthdate&#10;" style="text;strokeColor=none;fillColor=none;align=left;verticalAlign=top;spacingLeft=4;spacingRight=4;overflow=hidden;rotatable=0;points=[[0,0.5],[1,0.5]];portConstraint=eastwest;" parent="25" vertex="1">
                    <mxGeometry y="78" width="140" height="26" as="geometry"/>
                </mxCell>
                <mxCell id="29" value="" style="endArrow=none;startArrow=diamond;endFill=0;startFill=1;html=1;verticalAlign=bottom;labelBackgroundColor=none;strokeWidth=2;startSize=8;endSize=8;" parent="1" source="19" target="25" edge="1">
                    <mxGeometry width="160" relative="1" as="geometry">
                        <mxPoint x="470" y="311.45901639344265" as="sourcePoint"/>
                        <mxPoint x="280" y="312.70491803278696" as="targetPoint"/>
                    </mxGeometry>
                </mxCell>
                <mxCell id="30" value="1,1" style="edgeLabel;html=1;align=center;verticalAlign=middle;resizable=0;points=[];" parent="29" vertex="1" connectable="0">
                    <mxGeometry x="-0.8439" y="-1" relative="1" as="geometry">
                        <mxPoint x="20.64" y="-1.7300000000000004" as="offset"/>
                    </mxGeometry>
                </mxCell>
                <mxCell id="31" value="1,1" style="edgeLabel;html=1;align=center;verticalAlign=middle;resizable=0;points=[];" parent="29" vertex="1" connectable="0">
                    <mxGeometry x="0.9082" y="-3" relative="1" as="geometry">
                        <mxPoint x="-13.64" y="-7.77" as="offset"/>
                    </mxGeometry>
                </mxCell>
                <mxCell id="32" value="Location" style="swimlane;fontStyle=0;childLayout=stackLayout;horizontal=1;startSize=26;horizontalStack=0;resizeParent=1;resizeParentMax=0;resizeLast=0;collapsible=1;marginBottom=0;shadow=1;dashed=1;" parent="1" vertex="1">
                    <mxGeometry x="170" y="90" width="140" height="104" as="geometry">
                        <mxRectangle x="440" y="250" width="90" height="26" as="alternateBounds"/>
                    </mxGeometry>
                </mxCell>
                <mxCell id="33" value="country" style="text;strokeColor=none;fillColor=none;align=left;verticalAlign=top;spacingLeft=4;spacingRight=4;overflow=hidden;rotatable=0;points=[[0,0.5],[1,0.5]];portConstraint=eastwest;" parent="32" vertex="1">
                    <mxGeometry y="26" width="140" height="26" as="geometry"/>
                </mxCell>
                <mxCell id="34" value="town" style="text;strokeColor=none;fillColor=none;align=left;verticalAlign=top;spacingLeft=4;spacingRight=4;overflow=hidden;rotatable=0;points=[[0,0.5],[1,0.5]];portConstraint=eastwest;" parent="32" vertex="1">
                    <mxGeometry y="52" width="140" height="26" as="geometry"/>
                </mxCell>
                <mxCell id="35" value="address" style="text;strokeColor=none;fillColor=none;align=left;verticalAlign=top;spacingLeft=4;spacingRight=4;overflow=hidden;rotatable=0;points=[[0,0.5],[1,0.5]];portConstraint=eastwest;" parent="32" vertex="1">
                    <mxGeometry y="78" width="140" height="26" as="geometry"/>
                </mxCell>
                <mxCell id="36" value="" style="endArrow=none;startArrow=diamond;endFill=0;startFill=1;html=1;verticalAlign=bottom;labelBackgroundColor=none;strokeWidth=2;startSize=8;endSize=8;" parent="1" source="9" target="19" edge="1">
                    <mxGeometry width="160" relative="1" as="geometry">
                        <mxPoint x="90" y="12.5" as="sourcePoint"/>
                        <mxPoint x="272.8358208955224" y="100" as="targetPoint"/>
                    </mxGeometry>
                </mxCell>
                <mxCell id="37" value="0,n" style="edgeLabel;html=1;align=center;verticalAlign=middle;resizable=0;points=[];" parent="36" vertex="1" connectable="0">
                    <mxGeometry x="0.635" relative="1" as="geometry">
                        <mxPoint x="5.509999999999998" y="9.46" as="offset"/>
                    </mxGeometry>
                </mxCell>
                <mxCell id="38" value="0,n" style="edgeLabel;html=1;align=center;verticalAlign=middle;resizable=0;points=[];" parent="36" vertex="1" connectable="0">
                    <mxGeometry x="-0.5615" y="-2" relative="1" as="geometry">
                        <mxPoint x="1" as="offset"/>
                    </mxGeometry>
                </mxCell>
                <mxCell id="42" value="" style="endArrow=none;startArrow=diamond;endFill=0;startFill=1;html=1;verticalAlign=bottom;labelBackgroundColor=none;strokeWidth=2;startSize=8;endSize=8;" parent="1" source="15" target="19" edge="1">
                    <mxGeometry width="160" relative="1" as="geometry">
                        <mxPoint x="20" y="270.0000000000002" as="sourcePoint"/>
                        <mxPoint x="20" y="38" as="targetPoint"/>
                    </mxGeometry>
                </mxCell>
                <mxCell id="43" value="0,n" style="edgeLabel;html=1;align=center;verticalAlign=middle;resizable=0;points=[];" parent="42" vertex="1" connectable="0">
                    <mxGeometry x="0.9176" relative="1" as="geometry">
                        <mxPoint as="offset"/>
                    </mxGeometry>
                </mxCell>
                <mxCell id="44" value="0,n" style="edgeLabel;html=1;align=center;verticalAlign=middle;resizable=0;points=[];" parent="42" vertex="1" connectable="0">
                    <mxGeometry x="-0.8412" relative="1" as="geometry">
                        <mxPoint as="offset"/>
                    </mxGeometry>
                </mxCell>
                <mxCell id="45" value="food" style="swimlane;fontStyle=0;childLayout=stackLayout;horizontal=1;startSize=26;fillColor=#60a917;horizontalStack=0;resizeParent=1;resizeParentMax=0;resizeLast=0;collapsible=1;marginBottom=0;shadow=1;strokeColor=#2D7600;fontColor=#ffffff;" parent="1" vertex="1">
                    <mxGeometry x="680" y="-400" width="170" height="78" as="geometry">
                        <mxRectangle x="110" y="120" width="50" height="26" as="alternateBounds"/>
                    </mxGeometry>
                </mxCell>
                <mxCell id="46" value="name" style="text;strokeColor=none;fillColor=none;align=left;verticalAlign=top;spacingLeft=4;spacingRight=4;overflow=hidden;rotatable=0;points=[[0,0.5],[1,0.5]];portConstraint=eastwest;" parent="45" vertex="1">
                    <mxGeometry y="26" width="170" height="26" as="geometry"/>
                </mxCell>
                <mxCell id="47" value="description" style="text;strokeColor=none;fillColor=none;align=left;verticalAlign=top;spacingLeft=4;spacingRight=4;overflow=hidden;rotatable=0;points=[[0,0.5],[1,0.5]];portConstraint=eastwest;" parent="45" vertex="1">
                    <mxGeometry y="52" width="170" height="26" as="geometry"/>
                </mxCell>
                <mxCell id="49" value="preparation" style="swimlane;fontStyle=0;childLayout=stackLayout;horizontal=1;startSize=26;fillColor=#60a917;horizontalStack=0;resizeParent=1;resizeParentMax=0;resizeLast=0;collapsible=1;marginBottom=0;shadow=1;strokeColor=#2D7600;fontColor=#ffffff;" parent="1" vertex="1">
                    <mxGeometry x="950" y="-400" width="140" height="78" as="geometry">
                        <mxRectangle x="1120" y="162.5" width="100" height="26" as="alternateBounds"/>
                    </mxGeometry>
                </mxCell>
                <mxCell id="50" value="name" style="text;strokeColor=none;fillColor=none;align=left;verticalAlign=top;spacingLeft=4;spacingRight=4;overflow=hidden;rotatable=0;points=[[0,0.5],[1,0.5]];portConstraint=eastwest;" parent="49" vertex="1">
                    <mxGeometry y="26" width="140" height="26" as="geometry"/>
                </mxCell>
                <mxCell id="51" value="description" style="text;strokeColor=none;fillColor=none;align=left;verticalAlign=top;spacingLeft=4;spacingRight=4;overflow=hidden;rotatable=0;points=[[0,0.5],[1,0.5]];portConstraint=eastwest;" parent="49" vertex="1">
                    <mxGeometry y="52" width="140" height="26" as="geometry"/>
                </mxCell>
                <mxCell id="52" value="" style="endArrow=none;startArrow=diamond;endFill=0;startFill=1;html=1;verticalAlign=bottom;labelBackgroundColor=none;strokeWidth=1;startSize=8;endSize=8;" parent="1" source="45" target="49" edge="1">
                    <mxGeometry width="160" relative="1" as="geometry">
                        <mxPoint x="1160" y="142.39999999999998" as="sourcePoint"/>
                        <mxPoint x="1330" y="162.79999999999995" as="targetPoint"/>
                    </mxGeometry>
                </mxCell>
                <mxCell id="53" value="0,n" style="edgeLabel;html=1;align=center;verticalAlign=middle;resizable=0;points=[];" parent="52" vertex="1" connectable="0">
                    <mxGeometry x="-0.55" relative="1" as="geometry">
                        <mxPoint x="5" y="0.83" as="offset"/>
                    </mxGeometry>
                </mxCell>
                <mxCell id="54" value="0,n" style="edgeLabel;html=1;align=center;verticalAlign=middle;resizable=0;points=[];" parent="52" vertex="1" connectable="0">
                    <mxGeometry x="0.6544" y="-1" relative="1" as="geometry">
                        <mxPoint as="offset"/>
                    </mxGeometry>
                </mxCell>
                <mxCell id="58" value="" style="endArrow=none;startArrow=diamond;endFill=0;startFill=1;html=1;verticalAlign=bottom;labelBackgroundColor=none;strokeWidth=2;startSize=8;endSize=8;" parent="1" source="19" target="121" edge="1">
                    <mxGeometry width="160" relative="1" as="geometry">
                        <mxPoint x="-161.0232558139537" y="23.000000000000227" as="sourcePoint"/>
                        <mxPoint x="11.02325581395371" y="160.00000000000023" as="targetPoint"/>
                    </mxGeometry>
                </mxCell>
                <mxCell id="59" value="1,1" style="edgeLabel;html=1;align=center;verticalAlign=middle;resizable=0;points=[];rotation=0;" parent="58" vertex="1" connectable="0">
                    <mxGeometry x="0.8792" relative="1" as="geometry">
                        <mxPoint x="13.98" y="-5" as="offset"/>
                    </mxGeometry>
                </mxCell>
                <mxCell id="60" value="0,n" style="edgeLabel;html=1;align=center;verticalAlign=middle;resizable=0;points=[];" parent="58" vertex="1" connectable="0">
                    <mxGeometry x="-0.7694" y="-1" relative="1" as="geometry">
                        <mxPoint x="-17.16" as="offset"/>
                    </mxGeometry>
                </mxCell>
                <mxCell id="61" value="" style="endArrow=none;startArrow=diamond;endFill=0;startFill=1;html=1;verticalAlign=bottom;labelBackgroundColor=none;strokeWidth=2;startSize=8;endSize=8;" parent="1" source="15" target="130" edge="1">
                    <mxGeometry width="160" relative="1" as="geometry">
                        <mxPoint x="96.02409638554195" y="-171" as="sourcePoint"/>
                        <mxPoint x="253.97590361445782" as="targetPoint"/>
                    </mxGeometry>
                </mxCell>
                <mxCell id="62" value="1,1" style="edgeLabel;html=1;align=center;verticalAlign=middle;resizable=0;points=[];" parent="61" vertex="1" connectable="0">
                    <mxGeometry x="0.6848" y="-3" relative="1" as="geometry">
                        <mxPoint as="offset"/>
                    </mxGeometry>
                </mxCell>
                <mxCell id="63" value="0,n" style="edgeLabel;html=1;align=center;verticalAlign=middle;resizable=0;points=[];" parent="61" vertex="1" connectable="0">
                    <mxGeometry x="-0.6496" y="-1" relative="1" as="geometry">
                        <mxPoint y="-10.44" as="offset"/>
                    </mxGeometry>
                </mxCell>
                <mxCell id="64" value="criterion" style="swimlane;fontStyle=0;childLayout=stackLayout;horizontal=1;startSize=26;fillColor=#6a00ff;horizontalStack=0;resizeParent=1;resizeParentMax=0;resizeLast=0;collapsible=1;marginBottom=0;shadow=1;strokeColor=#3700CC;fontColor=#ffffff;" parent="1" vertex="1">
                    <mxGeometry x="410" y="-540" width="220" height="52" as="geometry">
                        <mxRectangle x="560" y="69.99999999999994" width="50" height="26" as="alternateBounds"/>
                    </mxGeometry>
                </mxCell>
                <mxCell id="65" value="ranking" style="text;strokeColor=none;fillColor=none;align=left;verticalAlign=top;spacingLeft=4;spacingRight=4;overflow=hidden;rotatable=0;points=[[0,0.5],[1,0.5]];portConstraint=eastwest;" parent="64" vertex="1">
                    <mxGeometry y="26" width="220" height="26" as="geometry"/>
                </mxCell>
                <mxCell id="67" value="" style="endArrow=none;startArrow=diamond;endFill=0;startFill=1;html=1;verticalAlign=bottom;labelBackgroundColor=none;strokeWidth=2;startSize=8;endSize=8;" parent="1" source="19" target="64" edge="1">
                    <mxGeometry width="160" relative="1" as="geometry">
                        <mxPoint x="130" y="-124.5454545454545" as="sourcePoint"/>
                        <mxPoint x="430" y="74.5454545454545" as="targetPoint"/>
                    </mxGeometry>
                </mxCell>
                <mxCell id="68" value="0,n" style="edgeLabel;html=1;align=center;verticalAlign=middle;resizable=0;points=[];" parent="67" vertex="1" connectable="0">
                    <mxGeometry x="-0.8545" y="-2" relative="1" as="geometry">
                        <mxPoint as="offset"/>
                    </mxGeometry>
                </mxCell>
                <mxCell id="69" value="0,n" style="edgeLabel;html=1;align=center;verticalAlign=middle;resizable=0;points=[];" parent="67" vertex="1" connectable="0">
                    <mxGeometry x="0.8061" y="-1" relative="1" as="geometry">
                        <mxPoint as="offset"/>
                    </mxGeometry>
                </mxCell>
                <mxCell id="70" value="criterion_type" style="swimlane;fontStyle=0;childLayout=stackLayout;horizontal=1;startSize=26;fillColor=#6a00ff;horizontalStack=0;resizeParent=1;resizeParentMax=0;resizeLast=0;collapsible=1;marginBottom=0;shadow=1;strokeColor=#3700CC;fontColor=#ffffff;" parent="1" vertex="1">
                    <mxGeometry x="414" y="-270" width="220" height="74" as="geometry">
                        <mxRectangle x="560" y="69.99999999999994" width="50" height="26" as="alternateBounds"/>
                    </mxGeometry>
                </mxCell>
                <mxCell id="71" value="name" style="text;strokeColor=none;fillColor=none;align=left;verticalAlign=top;spacingLeft=4;spacingRight=4;overflow=hidden;rotatable=0;points=[[0,0.5],[1,0.5]];portConstraint=eastwest;" parent="70" vertex="1">
                    <mxGeometry y="26" width="220" height="26" as="geometry"/>
                </mxCell>
                <mxCell id="72" value="description" style="text;strokeColor=none;fillColor=none;align=left;verticalAlign=top;spacingLeft=4;spacingRight=4;overflow=hidden;rotatable=0;points=[[0,0.5],[1,0.5]];portConstraint=eastwest;" parent="70" vertex="1">
                    <mxGeometry y="52" width="220" height="22" as="geometry"/>
                </mxCell>
                <mxCell id="73" value="" style="endArrow=diamond;startArrow=none;endFill=1;startFill=0;html=1;verticalAlign=bottom;labelBackgroundColor=none;strokeWidth=2;startSize=8;endSize=8;" parent="1" source="70" target="64" edge="1">
                    <mxGeometry width="160" relative="1" as="geometry">
                        <mxPoint x="290" y="-46" as="sourcePoint"/>
                        <mxPoint x="620" y="-46" as="targetPoint"/>
                    </mxGeometry>
                </mxCell>
                <mxCell id="74" value="0,n" style="edgeLabel;html=1;align=center;verticalAlign=middle;resizable=0;points=[];" parent="73" vertex="1" connectable="0">
                    <mxGeometry x="-0.8545" y="-2" relative="1" as="geometry">
                        <mxPoint as="offset"/>
                    </mxGeometry>
                </mxCell>
                <mxCell id="75" value="1,1" style="edgeLabel;html=1;align=center;verticalAlign=middle;resizable=0;points=[];" parent="73" vertex="1" connectable="0">
                    <mxGeometry x="0.8061" y="-1" relative="1" as="geometry">
                        <mxPoint x="-1.67" y="14.69" as="offset"/>
                    </mxGeometry>
                </mxCell>
                <mxCell id="76" value="food_type" style="swimlane;fontStyle=0;childLayout=stackLayout;horizontal=1;startSize=26;fillColor=#60a917;horizontalStack=0;resizeParent=1;resizeParentMax=0;resizeLast=0;collapsible=1;marginBottom=0;shadow=1;strokeColor=#2D7600;fontColor=#ffffff;" parent="1" vertex="1">
                    <mxGeometry x="680" y="-280" width="170" height="78" as="geometry">
                        <mxRectangle x="110" y="120" width="50" height="26" as="alternateBounds"/>
                    </mxGeometry>
                </mxCell>
                <mxCell id="77" value="name" style="text;strokeColor=none;fillColor=none;align=left;verticalAlign=top;spacingLeft=4;spacingRight=4;overflow=hidden;rotatable=0;points=[[0,0.5],[1,0.5]];portConstraint=eastwest;" parent="76" vertex="1">
                    <mxGeometry y="26" width="170" height="26" as="geometry"/>
                </mxCell>
                <mxCell id="78" value="description" style="text;strokeColor=none;fillColor=none;align=left;verticalAlign=top;spacingLeft=4;spacingRight=4;overflow=hidden;rotatable=0;points=[[0,0.5],[1,0.5]];portConstraint=eastwest;" parent="76" vertex="1">
                    <mxGeometry y="52" width="170" height="26" as="geometry"/>
                </mxCell>
                <mxCell id="80" value="" style="endArrow=diamond;startArrow=none;endFill=1;startFill=0;html=1;verticalAlign=bottom;labelBackgroundColor=none;strokeWidth=2;startSize=8;endSize=8;" parent="1" source="76" target="45" edge="1">
                    <mxGeometry width="160" relative="1" as="geometry">
                        <mxPoint x="500" y="-250" as="sourcePoint"/>
                        <mxPoint x="500" y="-428" as="targetPoint"/>
                    </mxGeometry>
                </mxCell>
                <mxCell id="81" value="0,n" style="edgeLabel;html=1;align=center;verticalAlign=middle;resizable=0;points=[];" parent="80" vertex="1" connectable="0">
                    <mxGeometry x="-0.8545" y="-2" relative="1" as="geometry">
                        <mxPoint y="-22" as="offset"/>
                    </mxGeometry>
                </mxCell>
                <mxCell id="82" value="1,1" style="edgeLabel;html=1;align=center;verticalAlign=middle;resizable=0;points=[];" parent="80" vertex="1" connectable="0">
                    <mxGeometry x="0.8061" y="-1" relative="1" as="geometry">
                        <mxPoint x="9.21" y="14.69" as="offset"/>
                    </mxGeometry>
                </mxCell>
                <mxCell id="90" value="user_type" style="swimlane;fontStyle=0;childLayout=stackLayout;horizontal=1;startSize=26;fillColor=#a20025;horizontalStack=0;resizeParent=1;resizeParentMax=0;resizeLast=0;collapsible=1;marginBottom=0;shadow=1;strokeColor=#6F0000;fontColor=#ffffff;" parent="1" vertex="1">
                    <mxGeometry x="30" y="-470" width="140" height="78" as="geometry">
                        <mxRectangle x="110" y="120" width="50" height="26" as="alternateBounds"/>
                    </mxGeometry>
                </mxCell>
                <mxCell id="91" value="name" style="text;strokeColor=none;fillColor=none;align=left;verticalAlign=top;spacingLeft=4;spacingRight=4;overflow=hidden;rotatable=0;points=[[0,0.5],[1,0.5]];portConstraint=eastwest;" parent="90" vertex="1">
                    <mxGeometry y="26" width="140" height="26" as="geometry"/>
                </mxCell>
                <mxCell id="92" value="description" style="text;strokeColor=none;fillColor=none;align=left;verticalAlign=top;spacingLeft=4;spacingRight=4;overflow=hidden;rotatable=0;points=[[0,0.5],[1,0.5]];portConstraint=eastwest;" parent="90" vertex="1">
                    <mxGeometry y="52" width="140" height="26" as="geometry"/>
                </mxCell>
                <mxCell id="96" value="" style="endArrow=none;startArrow=diamond;endFill=0;startFill=1;html=1;verticalAlign=bottom;labelBackgroundColor=none;strokeWidth=2;startSize=8;endSize=8;" parent="1" source="19" target="90" edge="1">
                    <mxGeometry width="160" relative="1" as="geometry">
                        <mxPoint x="90" y="-136.55999999999995" as="sourcePoint"/>
                        <mxPoint x="200" y="-82.44000000000005" as="targetPoint"/>
                    </mxGeometry>
                </mxCell>
                <mxCell id="97" value="1,1" style="edgeLabel;html=1;align=center;verticalAlign=middle;resizable=0;points=[];" parent="96" vertex="1" connectable="0">
                    <mxGeometry x="-0.8439" y="-1" relative="1" as="geometry">
                        <mxPoint x="-1" y="-22.430000000000003" as="offset"/>
                    </mxGeometry>
                </mxCell>
                <mxCell id="98" value="0,n" style="edgeLabel;html=1;align=center;verticalAlign=middle;resizable=0;points=[];" parent="96" vertex="1" connectable="0">
                    <mxGeometry x="0.9082" y="-3" relative="1" as="geometry">
                        <mxPoint x="-3" y="7" as="offset"/>
                    </mxGeometry>
                </mxCell>
                <mxCell id="101" value="event_location" style="swimlane;fontStyle=0;childLayout=stackLayout;horizontal=1;startSize=26;horizontalStack=0;resizeParent=1;resizeParentMax=0;resizeLast=0;collapsible=1;marginBottom=0;shadow=1;fillColor=#1ba1e2;strokeColor=#006EAF;fontColor=#ffffff;" parent="1" vertex="1">
                    <mxGeometry x="-110" y="116" width="140" height="52" as="geometry">
                        <mxRectangle x="440" y="250" width="90" height="26" as="alternateBounds"/>
                    </mxGeometry>
                </mxCell>
                <mxCell id="105" value="user_adress" style="swimlane;fontStyle=0;childLayout=stackLayout;horizontal=1;startSize=26;horizontalStack=0;resizeParent=1;resizeParentMax=0;resizeLast=0;collapsible=1;marginBottom=0;shadow=1;fillColor=#a20025;strokeColor=#6F0000;fontColor=#ffffff;" parent="1" vertex="1">
                    <mxGeometry x="170" y="-60" width="140" height="52" as="geometry">
                        <mxRectangle x="440" y="250" width="90" height="26" as="alternateBounds"/>
                    </mxGeometry>
                </mxCell>
                <mxCell id="109" value="" style="endArrow=block;html=1;endFill=1;fillColor=#e3c800;strokeColor=#B09500;strokeWidth=3;" parent="1" source="105" target="32" edge="1">
                    <mxGeometry width="50" height="50" relative="1" as="geometry">
                        <mxPoint x="90" y="-130" as="sourcePoint"/>
                        <mxPoint x="140" y="-180" as="targetPoint"/>
                    </mxGeometry>
                </mxCell>
                <mxCell id="110" value="" style="endArrow=block;html=1;endFill=1;fillColor=#e3c800;strokeColor=#B09500;strokeWidth=3;" parent="1" source="101" target="32" edge="1">
                    <mxGeometry width="50" height="50" relative="1" as="geometry">
                        <mxPoint x="180" y="25.999999999999773" as="sourcePoint"/>
                        <mxPoint x="290" y="47.99999999999977" as="targetPoint"/>
                    </mxGeometry>
                </mxCell>
                <mxCell id="111" value="" style="endArrow=none;startArrow=diamond;endFill=0;startFill=1;html=1;verticalAlign=bottom;labelBackgroundColor=none;strokeWidth=2;startSize=8;endSize=8;" parent="1" source="19" target="105" edge="1">
                    <mxGeometry width="160" relative="1" as="geometry">
                        <mxPoint x="-80" y="79.42307692307713" as="sourcePoint"/>
                        <mxPoint x="40" y="131.57692307692332" as="targetPoint"/>
                    </mxGeometry>
                </mxCell>
                <mxCell id="112" value="1,1" style="edgeLabel;html=1;align=center;verticalAlign=middle;resizable=0;points=[];" parent="111" vertex="1" connectable="0">
                    <mxGeometry x="0.9035" relative="1" as="geometry">
                        <mxPoint x="-11.79" y="-6.67" as="offset"/>
                    </mxGeometry>
                </mxCell>
                <mxCell id="113" value="0,1" style="edgeLabel;html=1;align=center;verticalAlign=middle;resizable=0;points=[];" parent="111" vertex="1" connectable="0">
                    <mxGeometry x="-0.8414" relative="1" as="geometry">
                        <mxPoint x="18.990000000000002" y="14.18" as="offset"/>
                    </mxGeometry>
                </mxCell>
                <mxCell id="118" value="note" style="swimlane;fontStyle=0;childLayout=stackLayout;horizontal=1;startSize=26;horizontalStack=0;resizeParent=1;resizeParentMax=0;resizeLast=0;collapsible=1;marginBottom=0;shadow=1;dashed=1;" parent="1" vertex="1">
                    <mxGeometry x="-400" y="-370" width="140" height="78" as="geometry">
                        <mxRectangle x="110" y="120" width="50" height="26" as="alternateBounds"/>
                    </mxGeometry>
                </mxCell>
                <mxCell id="119" value="title" style="text;strokeColor=none;fillColor=none;align=left;verticalAlign=top;spacingLeft=4;spacingRight=4;overflow=hidden;rotatable=0;points=[[0,0.5],[1,0.5]];portConstraint=eastwest;" parent="118" vertex="1">
                    <mxGeometry y="26" width="140" height="26" as="geometry"/>
                </mxCell>
                <mxCell id="120" value="content" style="text;strokeColor=none;fillColor=none;align=left;verticalAlign=top;spacingLeft=4;spacingRight=4;overflow=hidden;rotatable=0;points=[[0,0.5],[1,0.5]];portConstraint=eastwest;" parent="118" vertex="1">
                    <mxGeometry y="52" width="140" height="26" as="geometry"/>
                </mxCell>
                <mxCell id="121" value="user_note" style="swimlane;fontStyle=0;childLayout=stackLayout;horizontal=1;startSize=26;fillColor=#d80073;horizontalStack=0;resizeParent=1;resizeParentMax=0;resizeLast=0;collapsible=1;marginBottom=0;shadow=1;strokeColor=#A50040;fontColor=#ffffff;" parent="1" vertex="1">
                    <mxGeometry x="-330" y="-191" width="140" height="52" as="geometry">
                        <mxRectangle x="110" y="120" width="50" height="26" as="alternateBounds"/>
                    </mxGeometry>
                </mxCell>
                <mxCell id="125" value="" style="endArrow=none;startArrow=diamond;endFill=0;startFill=1;html=1;verticalAlign=bottom;labelBackgroundColor=none;strokeWidth=2;startSize=8;endSize=8;" parent="1" source="118" target="19" edge="1">
                    <mxGeometry width="160" relative="1" as="geometry">
                        <mxPoint x="-50" y="-158.32432432432438" as="sourcePoint"/>
                        <mxPoint x="-280" y="-116.67567567567585" as="targetPoint"/>
                    </mxGeometry>
                </mxCell>
                <mxCell id="126" value="0,n" style="edgeLabel;html=1;align=center;verticalAlign=middle;resizable=0;points=[];rotation=0;" parent="125" vertex="1" connectable="0">
                    <mxGeometry x="0.8792" relative="1" as="geometry">
                        <mxPoint x="-2.6799999999999997" y="-15.5" as="offset"/>
                    </mxGeometry>
                </mxCell>
                <mxCell id="127" value="1,1" style="edgeLabel;html=1;align=center;verticalAlign=middle;resizable=0;points=[];" parent="125" vertex="1" connectable="0">
                    <mxGeometry x="-0.7694" y="-1" relative="1" as="geometry">
                        <mxPoint as="offset"/>
                    </mxGeometry>
                </mxCell>
                <mxCell id="128" value="author" style="edgeLabel;html=1;align=center;verticalAlign=middle;resizable=0;points=[];" parent="125" vertex="1" connectable="0">
                    <mxGeometry x="0.094" y="-1" relative="1" as="geometry">
                        <mxPoint as="offset"/>
                    </mxGeometry>
                </mxCell>
                <mxCell id="129" value="" style="endArrow=block;html=1;endFill=1;fillColor=#e3c800;strokeColor=#B09500;strokeWidth=3;" parent="1" source="121" target="118" edge="1">
                    <mxGeometry width="50" height="50" relative="1" as="geometry">
                        <mxPoint x="120" y="140" as="sourcePoint"/>
                        <mxPoint x="180" y="140" as="targetPoint"/>
                    </mxGeometry>
                </mxCell>
                <mxCell id="130" value="event_note" style="swimlane;fontStyle=0;childLayout=stackLayout;horizontal=1;startSize=26;fillColor=#d80073;horizontalStack=0;resizeParent=1;resizeParentMax=0;resizeLast=0;collapsible=1;marginBottom=0;shadow=1;strokeColor=#A50040;fontColor=#ffffff;" parent="1" vertex="1">
                    <mxGeometry x="-483" y="-191" width="140" height="52" as="geometry">
                        <mxRectangle x="110" y="120" width="50" height="26" as="alternateBounds"/>
                    </mxGeometry>
                </mxCell>
                <mxCell id="133" value="" style="endArrow=block;html=1;endFill=1;strokeWidth=3;fillColor=#e3c800;strokeColor=#B09500;" parent="1" source="130" target="118" edge="1">
                    <mxGeometry width="50" height="50" relative="1" as="geometry">
                        <mxPoint x="-247.15736040609136" y="-130" as="sourcePoint"/>
                        <mxPoint x="-334.26395939086296" y="-262" as="targetPoint"/>
                    </mxGeometry>
                </mxCell>
            </root>
        </mxGraphModel>
    </diagram>
    <diagram id="r5tVd0_HBFevqTnQ8y4s" name="Page-2">
        <mxGraphModel dx="930" dy="579" grid="1" gridSize="10" guides="1" tooltips="1" connect="1" arrows="1" fold="1" page="1" pageScale="1" pageWidth="827" pageHeight="1169" math="0" shadow="0">
            <root>
                <mxCell id="9Gc0s6kMuLPmSohf4uFR-0"/>
                <mxCell id="9Gc0s6kMuLPmSohf4uFR-1" parent="9Gc0s6kMuLPmSohf4uFR-0"/>
                <mxCell id="9Gc0s6kMuLPmSohf4uFR-2" value="user" style="swimlane;fontStyle=0;childLayout=stackLayout;horizontal=1;startSize=26;horizontalStack=0;resizeParent=1;resizeParentMax=0;resizeLast=0;collapsible=1;marginBottom=0;" vertex="1" parent="9Gc0s6kMuLPmSohf4uFR-1">
                    <mxGeometry x="180" y="290" width="140" height="104" as="geometry"/>
                </mxCell>
                <mxCell id="9Gc0s6kMuLPmSohf4uFR-3" value="login" style="text;strokeColor=none;fillColor=none;align=left;verticalAlign=top;spacingLeft=4;spacingRight=4;overflow=hidden;rotatable=0;points=[[0,0.5],[1,0.5]];portConstraint=eastwest;" vertex="1" parent="9Gc0s6kMuLPmSohf4uFR-2">
                    <mxGeometry y="26" width="140" height="26" as="geometry"/>
                </mxCell>
                <mxCell id="9Gc0s6kMuLPmSohf4uFR-4" value="email" style="text;strokeColor=none;fillColor=none;align=left;verticalAlign=top;spacingLeft=4;spacingRight=4;overflow=hidden;rotatable=0;points=[[0,0.5],[1,0.5]];portConstraint=eastwest;" vertex="1" parent="9Gc0s6kMuLPmSohf4uFR-2">
                    <mxGeometry y="52" width="140" height="26" as="geometry"/>
                </mxCell>
                <mxCell id="9Gc0s6kMuLPmSohf4uFR-5" value="password" style="text;strokeColor=none;fillColor=none;align=left;verticalAlign=top;spacingLeft=4;spacingRight=4;overflow=hidden;rotatable=0;points=[[0,0.5],[1,0.5]];portConstraint=eastwest;" vertex="1" parent="9Gc0s6kMuLPmSohf4uFR-2">
                    <mxGeometry y="78" width="140" height="26" as="geometry"/>
                </mxCell>
                <mxCell id="9Gc0s6kMuLPmSohf4uFR-6" value="user_role" style="swimlane;fontStyle=0;childLayout=stackLayout;horizontal=1;startSize=26;horizontalStack=0;resizeParent=1;resizeParentMax=0;resizeLast=0;collapsible=1;marginBottom=0;" vertex="1" parent="9Gc0s6kMuLPmSohf4uFR-1">
                    <mxGeometry x="180" y="140" width="140" height="78" as="geometry"/>
                </mxCell>
                <mxCell id="9Gc0s6kMuLPmSohf4uFR-7" value="name" style="text;strokeColor=none;fillColor=none;align=left;verticalAlign=top;spacingLeft=4;spacingRight=4;overflow=hidden;rotatable=0;points=[[0,0.5],[1,0.5]];portConstraint=eastwest;" vertex="1" parent="9Gc0s6kMuLPmSohf4uFR-6">
                    <mxGeometry y="26" width="140" height="26" as="geometry"/>
                </mxCell>
                <mxCell id="9Gc0s6kMuLPmSohf4uFR-8" value="description" style="text;strokeColor=none;fillColor=none;align=left;verticalAlign=top;spacingLeft=4;spacingRight=4;overflow=hidden;rotatable=0;points=[[0,0.5],[1,0.5]];portConstraint=eastwest;" vertex="1" parent="9Gc0s6kMuLPmSohf4uFR-6">
                    <mxGeometry y="52" width="140" height="26" as="geometry"/>
                </mxCell>
                <mxCell id="9Gc0s6kMuLPmSohf4uFR-9" value="" style="endArrow=none;html=1;endFill=0;startArrow=diamond;startFill=1;" edge="1" parent="9Gc0s6kMuLPmSohf4uFR-1" source="9Gc0s6kMuLPmSohf4uFR-2" target="9Gc0s6kMuLPmSohf4uFR-6">
                    <mxGeometry width="50" height="50" relative="1" as="geometry">
                        <mxPoint x="380" y="380" as="sourcePoint"/>
                        <mxPoint x="430" y="330" as="targetPoint"/>
                    </mxGeometry>
                </mxCell>
                <mxCell id="9Gc0s6kMuLPmSohf4uFR-10" value="1,1" style="edgeLabel;html=1;align=center;verticalAlign=middle;resizable=0;points=[];" vertex="1" connectable="0" parent="9Gc0s6kMuLPmSohf4uFR-9">
                    <mxGeometry x="-0.7949" y="-1" relative="1" as="geometry">
                        <mxPoint y="-17.59" as="offset"/>
                    </mxGeometry>
                </mxCell>
                <mxCell id="9Gc0s6kMuLPmSohf4uFR-11" value="0,n" style="edgeLabel;html=1;align=center;verticalAlign=middle;resizable=0;points=[];" vertex="1" connectable="0" parent="9Gc0s6kMuLPmSohf4uFR-9">
                    <mxGeometry x="0.8072" relative="1" as="geometry">
                        <mxPoint as="offset"/>
                    </mxGeometry>
                </mxCell>
                <mxCell id="9Gc0s6kMuLPmSohf4uFR-23" value="diet" style="swimlane;fontStyle=0;childLayout=stackLayout;horizontal=1;startSize=26;horizontalStack=0;resizeParent=1;resizeParentMax=0;resizeLast=0;collapsible=1;marginBottom=0;" vertex="1" parent="9Gc0s6kMuLPmSohf4uFR-1">
                    <mxGeometry x="40" y="460" width="140" height="78" as="geometry"/>
                </mxCell>
                <mxCell id="9Gc0s6kMuLPmSohf4uFR-24" value="name" style="text;strokeColor=none;fillColor=none;align=left;verticalAlign=top;spacingLeft=4;spacingRight=4;overflow=hidden;rotatable=0;points=[[0,0.5],[1,0.5]];portConstraint=eastwest;" vertex="1" parent="9Gc0s6kMuLPmSohf4uFR-23">
                    <mxGeometry y="26" width="140" height="26" as="geometry"/>
                </mxCell>
                <mxCell id="9Gc0s6kMuLPmSohf4uFR-25" value="description" style="text;strokeColor=none;fillColor=none;align=left;verticalAlign=top;spacingLeft=4;spacingRight=4;overflow=hidden;rotatable=0;points=[[0,0.5],[1,0.5]];portConstraint=eastwest;" vertex="1" parent="9Gc0s6kMuLPmSohf4uFR-23">
                    <mxGeometry y="52" width="140" height="26" as="geometry"/>
                </mxCell>
                <mxCell id="9Gc0s6kMuLPmSohf4uFR-26" value="" style="endArrow=none;html=1;endFill=0;startArrow=diamond;startFill=1;" edge="1" parent="9Gc0s6kMuLPmSohf4uFR-1" source="9Gc0s6kMuLPmSohf4uFR-2" target="9Gc0s6kMuLPmSohf4uFR-23">
                    <mxGeometry width="50" height="50" relative="1" as="geometry">
                        <mxPoint x="320" y="522.0039130434783" as="sourcePoint"/>
                        <mxPoint x="410" y="510.65608695652173" as="targetPoint"/>
                    </mxGeometry>
                </mxCell>
                <mxCell id="9Gc0s6kMuLPmSohf4uFR-27" value="0,n" style="edgeLabel;html=1;align=center;verticalAlign=middle;resizable=0;points=[];" vertex="1" connectable="0" parent="9Gc0s6kMuLPmSohf4uFR-26">
                    <mxGeometry x="-0.5955" y="3" relative="1" as="geometry">
                        <mxPoint as="offset"/>
                    </mxGeometry>
                </mxCell>
                <mxCell id="9Gc0s6kMuLPmSohf4uFR-28" value="0,n" style="edgeLabel;html=1;align=center;verticalAlign=middle;resizable=0;points=[];" vertex="1" connectable="0" parent="9Gc0s6kMuLPmSohf4uFR-26">
                    <mxGeometry x="0.7133" relative="1" as="geometry">
                        <mxPoint as="offset"/>
                    </mxGeometry>
                </mxCell>
                <mxCell id="9Gc0s6kMuLPmSohf4uFR-29" value="preference" style="swimlane;fontStyle=0;childLayout=stackLayout;horizontal=1;startSize=26;horizontalStack=0;resizeParent=1;resizeParentMax=0;resizeLast=0;collapsible=1;marginBottom=0;" vertex="1" parent="9Gc0s6kMuLPmSohf4uFR-1">
                    <mxGeometry x="274" y="460" width="140" height="78" as="geometry"/>
                </mxCell>
                <mxCell id="9Gc0s6kMuLPmSohf4uFR-30" value="name" style="text;strokeColor=none;fillColor=none;align=left;verticalAlign=top;spacingLeft=4;spacingRight=4;overflow=hidden;rotatable=0;points=[[0,0.5],[1,0.5]];portConstraint=eastwest;" vertex="1" parent="9Gc0s6kMuLPmSohf4uFR-29">
                    <mxGeometry y="26" width="140" height="26" as="geometry"/>
                </mxCell>
                <mxCell id="9Gc0s6kMuLPmSohf4uFR-31" value="description" style="text;strokeColor=none;fillColor=none;align=left;verticalAlign=top;spacingLeft=4;spacingRight=4;overflow=hidden;rotatable=0;points=[[0,0.5],[1,0.5]];portConstraint=eastwest;" vertex="1" parent="9Gc0s6kMuLPmSohf4uFR-29">
                    <mxGeometry y="52" width="140" height="26" as="geometry"/>
                </mxCell>
                <mxCell id="9Gc0s6kMuLPmSohf4uFR-33" value="" style="endArrow=none;html=1;endFill=0;startArrow=diamond;startFill=1;" edge="1" parent="9Gc0s6kMuLPmSohf4uFR-1" source="9Gc0s6kMuLPmSohf4uFR-2" target="9Gc0s6kMuLPmSohf4uFR-29">
                    <mxGeometry width="50" height="50" relative="1" as="geometry">
                        <mxPoint x="227.3429951690821" y="424" as="sourcePoint"/>
                        <mxPoint x="154.49275362318838" y="540" as="targetPoint"/>
                    </mxGeometry>
                </mxCell>
                <mxCell id="9Gc0s6kMuLPmSohf4uFR-34" value="0,n" style="edgeLabel;html=1;align=center;verticalAlign=middle;resizable=0;points=[];" vertex="1" connectable="0" parent="9Gc0s6kMuLPmSohf4uFR-33">
                    <mxGeometry x="-0.5955" y="3" relative="1" as="geometry">
                        <mxPoint as="offset"/>
                    </mxGeometry>
                </mxCell>
                <mxCell id="9Gc0s6kMuLPmSohf4uFR-35" value="1,1" style="edgeLabel;html=1;align=center;verticalAlign=middle;resizable=0;points=[];" vertex="1" connectable="0" parent="9Gc0s6kMuLPmSohf4uFR-33">
                    <mxGeometry x="0.7133" relative="1" as="geometry">
                        <mxPoint as="offset"/>
                    </mxGeometry>
                </mxCell>
            </root>
        </mxGraphModel>
    </diagram>
    <diagram id="7RdizIytV3Mfcs3jQjv0" name="Page-3">
        <mxGraphModel dx="1757" dy="579" grid="1" gridSize="10" guides="1" tooltips="1" connect="1" arrows="1" fold="1" page="1" pageScale="1" pageWidth="827" pageHeight="1169" math="0" shadow="0">
            <root>
                <mxCell id="mZI3XKUVaT1WBi_7NgOu-0"/>
                <mxCell id="mZI3XKUVaT1WBi_7NgOu-1" parent="mZI3XKUVaT1WBi_7NgOu-0"/>
                <mxCell id="mZI3XKUVaT1WBi_7NgOu-2" value="user" style="swimlane;fontStyle=0;childLayout=stackLayout;horizontal=1;startSize=26;horizontalStack=0;resizeParent=1;resizeParentMax=0;resizeLast=0;collapsible=1;marginBottom=0;" vertex="1" parent="mZI3XKUVaT1WBi_7NgOu-1">
                    <mxGeometry x="180" y="310" width="140" height="104" as="geometry"/>
                </mxCell>
                <mxCell id="mZI3XKUVaT1WBi_7NgOu-3" value="login" style="text;strokeColor=none;fillColor=none;align=left;verticalAlign=top;spacingLeft=4;spacingRight=4;overflow=hidden;rotatable=0;points=[[0,0.5],[1,0.5]];portConstraint=eastwest;" vertex="1" parent="mZI3XKUVaT1WBi_7NgOu-2">
                    <mxGeometry y="26" width="140" height="26" as="geometry"/>
                </mxCell>
                <mxCell id="mZI3XKUVaT1WBi_7NgOu-4" value="email" style="text;strokeColor=none;fillColor=none;align=left;verticalAlign=top;spacingLeft=4;spacingRight=4;overflow=hidden;rotatable=0;points=[[0,0.5],[1,0.5]];portConstraint=eastwest;" vertex="1" parent="mZI3XKUVaT1WBi_7NgOu-2">
                    <mxGeometry y="52" width="140" height="26" as="geometry"/>
                </mxCell>
                <mxCell id="mZI3XKUVaT1WBi_7NgOu-5" value="password" style="text;strokeColor=none;fillColor=none;align=left;verticalAlign=top;spacingLeft=4;spacingRight=4;overflow=hidden;rotatable=0;points=[[0,0.5],[1,0.5]];portConstraint=eastwest;" vertex="1" parent="mZI3XKUVaT1WBi_7NgOu-2">
                    <mxGeometry y="78" width="140" height="26" as="geometry"/>
                </mxCell>
                <mxCell id="mZI3XKUVaT1WBi_7NgOu-6" value="user_role" style="swimlane;fontStyle=0;childLayout=stackLayout;horizontal=1;startSize=26;horizontalStack=0;resizeParent=1;resizeParentMax=0;resizeLast=0;collapsible=1;marginBottom=0;" vertex="1" parent="mZI3XKUVaT1WBi_7NgOu-1">
                    <mxGeometry x="180" y="110" width="140" height="78" as="geometry"/>
                </mxCell>
                <mxCell id="mZI3XKUVaT1WBi_7NgOu-7" value="name" style="text;strokeColor=none;fillColor=none;align=left;verticalAlign=top;spacingLeft=4;spacingRight=4;overflow=hidden;rotatable=0;points=[[0,0.5],[1,0.5]];portConstraint=eastwest;" vertex="1" parent="mZI3XKUVaT1WBi_7NgOu-6">
                    <mxGeometry y="26" width="140" height="26" as="geometry"/>
                </mxCell>
                <mxCell id="mZI3XKUVaT1WBi_7NgOu-8" value="description" style="text;strokeColor=none;fillColor=none;align=left;verticalAlign=top;spacingLeft=4;spacingRight=4;overflow=hidden;rotatable=0;points=[[0,0.5],[1,0.5]];portConstraint=eastwest;" vertex="1" parent="mZI3XKUVaT1WBi_7NgOu-6">
                    <mxGeometry y="52" width="140" height="26" as="geometry"/>
                </mxCell>
                <mxCell id="mZI3XKUVaT1WBi_7NgOu-9" value="" style="endArrow=none;html=1;endFill=0;startArrow=diamond;startFill=1;" edge="1" parent="mZI3XKUVaT1WBi_7NgOu-1" source="mZI3XKUVaT1WBi_7NgOu-2" target="mZI3XKUVaT1WBi_7NgOu-6">
                    <mxGeometry width="50" height="50" relative="1" as="geometry">
                        <mxPoint x="380" y="380" as="sourcePoint"/>
                        <mxPoint x="430" y="330" as="targetPoint"/>
                    </mxGeometry>
                </mxCell>
                <mxCell id="mZI3XKUVaT1WBi_7NgOu-10" value="1,1" style="edgeLabel;html=1;align=center;verticalAlign=middle;resizable=0;points=[];" vertex="1" connectable="0" parent="mZI3XKUVaT1WBi_7NgOu-9">
                    <mxGeometry x="-0.7949" y="-1" relative="1" as="geometry">
                        <mxPoint y="-17.59" as="offset"/>
                    </mxGeometry>
                </mxCell>
                <mxCell id="mZI3XKUVaT1WBi_7NgOu-11" value="0,n" style="edgeLabel;html=1;align=center;verticalAlign=middle;resizable=0;points=[];" vertex="1" connectable="0" parent="mZI3XKUVaT1WBi_7NgOu-9">
                    <mxGeometry x="0.8072" relative="1" as="geometry">
                        <mxPoint as="offset"/>
                    </mxGeometry>
                </mxCell>
                <mxCell id="mZI3XKUVaT1WBi_7NgOu-23" value="diet" style="swimlane;fontStyle=0;childLayout=stackLayout;horizontal=1;startSize=26;horizontalStack=0;resizeParent=1;resizeParentMax=0;resizeLast=0;collapsible=1;marginBottom=0;" vertex="1" parent="mZI3XKUVaT1WBi_7NgOu-1">
                    <mxGeometry x="50" y="513" width="140" height="104" as="geometry"/>
                </mxCell>
                <mxCell id="mZI3XKUVaT1WBi_7NgOu-24" value="name" style="text;strokeColor=none;fillColor=none;align=left;verticalAlign=top;spacingLeft=4;spacingRight=4;overflow=hidden;rotatable=0;points=[[0,0.5],[1,0.5]];portConstraint=eastwest;" vertex="1" parent="mZI3XKUVaT1WBi_7NgOu-23">
                    <mxGeometry y="26" width="140" height="26" as="geometry"/>
                </mxCell>
                <mxCell id="mZI3XKUVaT1WBi_7NgOu-25" value="description" style="text;strokeColor=none;fillColor=none;align=left;verticalAlign=top;spacingLeft=4;spacingRight=4;overflow=hidden;rotatable=0;points=[[0,0.5],[1,0.5]];portConstraint=eastwest;" vertex="1" parent="mZI3XKUVaT1WBi_7NgOu-23">
                    <mxGeometry y="52" width="140" height="26" as="geometry"/>
                </mxCell>
                <mxCell id="Lj3upRI7GPCwITPfl4Yu-6" value="importance" style="text;strokeColor=none;fillColor=none;align=left;verticalAlign=top;spacingLeft=4;spacingRight=4;overflow=hidden;rotatable=0;points=[[0,0.5],[1,0.5]];portConstraint=eastwest;" vertex="1" parent="mZI3XKUVaT1WBi_7NgOu-23">
                    <mxGeometry y="78" width="140" height="26" as="geometry"/>
                </mxCell>
                <mxCell id="mZI3XKUVaT1WBi_7NgOu-26" value="" style="endArrow=none;html=1;endFill=0;startArrow=diamond;startFill=1;" edge="1" parent="mZI3XKUVaT1WBi_7NgOu-1" source="mZI3XKUVaT1WBi_7NgOu-2" target="mZI3XKUVaT1WBi_7NgOu-23">
                    <mxGeometry width="50" height="50" relative="1" as="geometry">
                        <mxPoint x="320" y="522.0039130434783" as="sourcePoint"/>
                        <mxPoint x="410" y="510.65608695652173" as="targetPoint"/>
                    </mxGeometry>
                </mxCell>
                <mxCell id="mZI3XKUVaT1WBi_7NgOu-27" value="0,n" style="edgeLabel;html=1;align=center;verticalAlign=middle;resizable=0;points=[];" vertex="1" connectable="0" parent="mZI3XKUVaT1WBi_7NgOu-26">
                    <mxGeometry x="-0.5955" y="3" relative="1" as="geometry">
                        <mxPoint as="offset"/>
                    </mxGeometry>
                </mxCell>
                <mxCell id="mZI3XKUVaT1WBi_7NgOu-28" value="0,n" style="edgeLabel;html=1;align=center;verticalAlign=middle;resizable=0;points=[];" vertex="1" connectable="0" parent="mZI3XKUVaT1WBi_7NgOu-26">
                    <mxGeometry x="0.7133" relative="1" as="geometry">
                        <mxPoint as="offset"/>
                    </mxGeometry>
                </mxCell>
                <mxCell id="mZI3XKUVaT1WBi_7NgOu-29" value="preference" style="swimlane;fontStyle=0;childLayout=stackLayout;horizontal=1;startSize=26;horizontalStack=0;resizeParent=1;resizeParentMax=0;resizeLast=0;collapsible=1;marginBottom=0;" vertex="1" parent="mZI3XKUVaT1WBi_7NgOu-1">
                    <mxGeometry x="290" y="513" width="140" height="104" as="geometry"/>
                </mxCell>
                <mxCell id="mZI3XKUVaT1WBi_7NgOu-30" value="name" style="text;strokeColor=none;fillColor=none;align=left;verticalAlign=top;spacingLeft=4;spacingRight=4;overflow=hidden;rotatable=0;points=[[0,0.5],[1,0.5]];portConstraint=eastwest;" vertex="1" parent="mZI3XKUVaT1WBi_7NgOu-29">
                    <mxGeometry y="26" width="140" height="26" as="geometry"/>
                </mxCell>
                <mxCell id="mZI3XKUVaT1WBi_7NgOu-31" value="description" style="text;strokeColor=none;fillColor=none;align=left;verticalAlign=top;spacingLeft=4;spacingRight=4;overflow=hidden;rotatable=0;points=[[0,0.5],[1,0.5]];portConstraint=eastwest;" vertex="1" parent="mZI3XKUVaT1WBi_7NgOu-29">
                    <mxGeometry y="52" width="140" height="26" as="geometry"/>
                </mxCell>
                <mxCell id="mZI3XKUVaT1WBi_7NgOu-32" value="rank" style="text;strokeColor=none;fillColor=none;align=left;verticalAlign=top;spacingLeft=4;spacingRight=4;overflow=hidden;rotatable=0;points=[[0,0.5],[1,0.5]];portConstraint=eastwest;" vertex="1" parent="mZI3XKUVaT1WBi_7NgOu-29">
                    <mxGeometry y="78" width="140" height="26" as="geometry"/>
                </mxCell>
                <mxCell id="mZI3XKUVaT1WBi_7NgOu-33" value="" style="endArrow=none;html=1;endFill=0;startArrow=diamond;startFill=1;" edge="1" parent="mZI3XKUVaT1WBi_7NgOu-1" source="mZI3XKUVaT1WBi_7NgOu-2" target="mZI3XKUVaT1WBi_7NgOu-29">
                    <mxGeometry width="50" height="50" relative="1" as="geometry">
                        <mxPoint x="227.3429951690821" y="424" as="sourcePoint"/>
                        <mxPoint x="154.49275362318838" y="540" as="targetPoint"/>
                    </mxGeometry>
                </mxCell>
                <mxCell id="mZI3XKUVaT1WBi_7NgOu-34" value="0,n" style="edgeLabel;html=1;align=center;verticalAlign=middle;resizable=0;points=[];" vertex="1" connectable="0" parent="mZI3XKUVaT1WBi_7NgOu-33">
                    <mxGeometry x="-0.5955" y="3" relative="1" as="geometry">
                        <mxPoint as="offset"/>
                    </mxGeometry>
                </mxCell>
                <mxCell id="mZI3XKUVaT1WBi_7NgOu-35" value="1,1" style="edgeLabel;html=1;align=center;verticalAlign=middle;resizable=0;points=[];" vertex="1" connectable="0" parent="mZI3XKUVaT1WBi_7NgOu-33">
                    <mxGeometry x="0.7133" relative="1" as="geometry">
                        <mxPoint as="offset"/>
                    </mxGeometry>
                </mxCell>
                <mxCell id="mZI3XKUVaT1WBi_7NgOu-36" value="food" style="swimlane;fontStyle=0;childLayout=stackLayout;horizontal=1;startSize=26;horizontalStack=0;resizeParent=1;resizeParentMax=0;resizeLast=0;collapsible=1;marginBottom=0;" vertex="1" parent="mZI3XKUVaT1WBi_7NgOu-1">
                    <mxGeometry x="530" y="526" width="140" height="78" as="geometry"/>
                </mxCell>
                <mxCell id="mZI3XKUVaT1WBi_7NgOu-37" value="name" style="text;strokeColor=none;fillColor=none;align=left;verticalAlign=top;spacingLeft=4;spacingRight=4;overflow=hidden;rotatable=0;points=[[0,0.5],[1,0.5]];portConstraint=eastwest;" vertex="1" parent="mZI3XKUVaT1WBi_7NgOu-36">
                    <mxGeometry y="26" width="140" height="26" as="geometry"/>
                </mxCell>
                <mxCell id="mZI3XKUVaT1WBi_7NgOu-38" value="description" style="text;strokeColor=none;fillColor=none;align=left;verticalAlign=top;spacingLeft=4;spacingRight=4;overflow=hidden;rotatable=0;points=[[0,0.5],[1,0.5]];portConstraint=eastwest;" vertex="1" parent="mZI3XKUVaT1WBi_7NgOu-36">
                    <mxGeometry y="52" width="140" height="26" as="geometry"/>
                </mxCell>
                <mxCell id="mZI3XKUVaT1WBi_7NgOu-39" value="" style="endArrow=none;html=1;endFill=0;startArrow=diamond;startFill=1;" edge="1" parent="mZI3XKUVaT1WBi_7NgOu-1" source="mZI3XKUVaT1WBi_7NgOu-29" target="mZI3XKUVaT1WBi_7NgOu-36">
                    <mxGeometry width="50" height="50" relative="1" as="geometry">
                        <mxPoint x="280" y="500" as="sourcePoint"/>
                        <mxPoint x="330" y="450" as="targetPoint"/>
                    </mxGeometry>
                </mxCell>
                <mxCell id="mZI3XKUVaT1WBi_7NgOu-40" value="0,1" style="edgeLabel;html=1;align=center;verticalAlign=middle;resizable=0;points=[];" vertex="1" connectable="0" parent="mZI3XKUVaT1WBi_7NgOu-39">
                    <mxGeometry x="-0.64" y="-2" relative="1" as="geometry">
                        <mxPoint as="offset"/>
                    </mxGeometry>
                </mxCell>
                <mxCell id="mZI3XKUVaT1WBi_7NgOu-41" value="0,n" style="edgeLabel;html=1;align=center;verticalAlign=middle;resizable=0;points=[];" vertex="1" connectable="0" parent="mZI3XKUVaT1WBi_7NgOu-39">
                    <mxGeometry x="0.6984" y="-1" relative="1" as="geometry">
                        <mxPoint as="offset"/>
                    </mxGeometry>
                </mxCell>
                <mxCell id="Lj3upRI7GPCwITPfl4Yu-0" value="diet_type" style="swimlane;fontStyle=0;childLayout=stackLayout;horizontal=1;startSize=26;horizontalStack=0;resizeParent=1;resizeParentMax=0;resizeLast=0;collapsible=1;marginBottom=0;" vertex="1" parent="mZI3XKUVaT1WBi_7NgOu-1">
                    <mxGeometry x="-190" y="310" width="140" height="104" as="geometry"/>
                </mxCell>
                <mxCell id="Lj3upRI7GPCwITPfl4Yu-1" value="name" style="text;strokeColor=none;fillColor=none;align=left;verticalAlign=top;spacingLeft=4;spacingRight=4;overflow=hidden;rotatable=0;points=[[0,0.5],[1,0.5]];portConstraint=eastwest;" vertex="1" parent="Lj3upRI7GPCwITPfl4Yu-0">
                    <mxGeometry y="26" width="140" height="26" as="geometry"/>
                </mxCell>
                <mxCell id="Lj3upRI7GPCwITPfl4Yu-2" value="description" style="text;strokeColor=none;fillColor=none;align=left;verticalAlign=top;spacingLeft=4;spacingRight=4;overflow=hidden;rotatable=0;points=[[0,0.5],[1,0.5]];portConstraint=eastwest;" vertex="1" parent="Lj3upRI7GPCwITPfl4Yu-0">
                    <mxGeometry y="52" width="140" height="26" as="geometry"/>
                </mxCell>
                <mxCell id="Lj3upRI7GPCwITPfl4Yu-5" value="importance" style="text;strokeColor=none;fillColor=none;align=left;verticalAlign=top;spacingLeft=4;spacingRight=4;overflow=hidden;rotatable=0;points=[[0,0.5],[1,0.5]];portConstraint=eastwest;" vertex="1" parent="Lj3upRI7GPCwITPfl4Yu-0">
                    <mxGeometry y="78" width="140" height="26" as="geometry"/>
                </mxCell>
                <mxCell id="Lj3upRI7GPCwITPfl4Yu-3" value="" style="endArrow=none;html=1;endFill=0;startArrow=diamond;startFill=1;" edge="1" parent="mZI3XKUVaT1WBi_7NgOu-1" source="mZI3XKUVaT1WBi_7NgOu-23" target="Lj3upRI7GPCwITPfl4Yu-0">
                    <mxGeometry width="50" height="50" relative="1" as="geometry">
                        <mxPoint x="330" y="420" as="sourcePoint"/>
                        <mxPoint x="380" y="370" as="targetPoint"/>
                    </mxGeometry>
                </mxCell>
            </root>
        </mxGraphModel>
    </diagram>
    <diagram id="Vt8i1PqGo8nKptImz2ZQ" name="Page-4">
        <mxGraphModel dx="1921" dy="681" grid="1" gridSize="10" guides="1" tooltips="1" connect="1" arrows="1" fold="1" page="1" pageScale="1" pageWidth="827" pageHeight="1169" math="0" shadow="0">
            <root>
                <mxCell id="NJKXZFUliu7iVkCIckWU-0"/>
                <mxCell id="NJKXZFUliu7iVkCIckWU-1" parent="NJKXZFUliu7iVkCIckWU-0"/>
                <mxCell id="EQGEEOCIgc-g9IXVqkau-0" value="user" style="swimlane;fontStyle=0;childLayout=stackLayout;horizontal=1;startSize=26;horizontalStack=0;resizeParent=1;resizeParentMax=0;resizeLast=0;collapsible=1;marginBottom=0;" vertex="1" parent="NJKXZFUliu7iVkCIckWU-1">
                    <mxGeometry x="180" y="310" width="140" height="104" as="geometry"/>
                </mxCell>
                <mxCell id="EQGEEOCIgc-g9IXVqkau-1" value="login" style="text;strokeColor=none;fillColor=none;align=left;verticalAlign=top;spacingLeft=4;spacingRight=4;overflow=hidden;rotatable=0;points=[[0,0.5],[1,0.5]];portConstraint=eastwest;" vertex="1" parent="EQGEEOCIgc-g9IXVqkau-0">
                    <mxGeometry y="26" width="140" height="26" as="geometry"/>
                </mxCell>
                <mxCell id="EQGEEOCIgc-g9IXVqkau-2" value="email" style="text;strokeColor=none;fillColor=none;align=left;verticalAlign=top;spacingLeft=4;spacingRight=4;overflow=hidden;rotatable=0;points=[[0,0.5],[1,0.5]];portConstraint=eastwest;" vertex="1" parent="EQGEEOCIgc-g9IXVqkau-0">
                    <mxGeometry y="52" width="140" height="26" as="geometry"/>
                </mxCell>
                <mxCell id="EQGEEOCIgc-g9IXVqkau-3" value="password" style="text;strokeColor=none;fillColor=none;align=left;verticalAlign=top;spacingLeft=4;spacingRight=4;overflow=hidden;rotatable=0;points=[[0,0.5],[1,0.5]];portConstraint=eastwest;" vertex="1" parent="EQGEEOCIgc-g9IXVqkau-0">
                    <mxGeometry y="78" width="140" height="26" as="geometry"/>
                </mxCell>
                <mxCell id="EQGEEOCIgc-g9IXVqkau-4" value="user_role" style="swimlane;fontStyle=0;childLayout=stackLayout;horizontal=1;startSize=26;horizontalStack=0;resizeParent=1;resizeParentMax=0;resizeLast=0;collapsible=1;marginBottom=0;" vertex="1" parent="NJKXZFUliu7iVkCIckWU-1">
                    <mxGeometry x="180" y="160" width="140" height="78" as="geometry"/>
                </mxCell>
                <mxCell id="EQGEEOCIgc-g9IXVqkau-5" value="name" style="text;strokeColor=none;fillColor=none;align=left;verticalAlign=top;spacingLeft=4;spacingRight=4;overflow=hidden;rotatable=0;points=[[0,0.5],[1,0.5]];portConstraint=eastwest;" vertex="1" parent="EQGEEOCIgc-g9IXVqkau-4">
                    <mxGeometry y="26" width="140" height="26" as="geometry"/>
                </mxCell>
                <mxCell id="EQGEEOCIgc-g9IXVqkau-6" value="description" style="text;strokeColor=none;fillColor=none;align=left;verticalAlign=top;spacingLeft=4;spacingRight=4;overflow=hidden;rotatable=0;points=[[0,0.5],[1,0.5]];portConstraint=eastwest;" vertex="1" parent="EQGEEOCIgc-g9IXVqkau-4">
                    <mxGeometry y="52" width="140" height="26" as="geometry"/>
                </mxCell>
                <mxCell id="EQGEEOCIgc-g9IXVqkau-7" value="" style="endArrow=none;html=1;endFill=0;startArrow=diamond;startFill=1;" edge="1" parent="NJKXZFUliu7iVkCIckWU-1" source="EQGEEOCIgc-g9IXVqkau-0" target="EQGEEOCIgc-g9IXVqkau-4">
                    <mxGeometry width="50" height="50" relative="1" as="geometry">
                        <mxPoint x="380" y="380" as="sourcePoint"/>
                        <mxPoint x="430" y="330" as="targetPoint"/>
                    </mxGeometry>
                </mxCell>
                <mxCell id="EQGEEOCIgc-g9IXVqkau-8" value="1,1" style="edgeLabel;html=1;align=center;verticalAlign=middle;resizable=0;points=[];" vertex="1" connectable="0" parent="EQGEEOCIgc-g9IXVqkau-7">
                    <mxGeometry x="-0.7949" y="-1" relative="1" as="geometry">
                        <mxPoint y="-17.59" as="offset"/>
                    </mxGeometry>
                </mxCell>
                <mxCell id="EQGEEOCIgc-g9IXVqkau-9" value="0,n" style="edgeLabel;html=1;align=center;verticalAlign=middle;resizable=0;points=[];" vertex="1" connectable="0" parent="EQGEEOCIgc-g9IXVqkau-7">
                    <mxGeometry x="0.8072" relative="1" as="geometry">
                        <mxPoint as="offset"/>
                    </mxGeometry>
                </mxCell>
                <mxCell id="EQGEEOCIgc-g9IXVqkau-10" value="diet" style="swimlane;fontStyle=0;childLayout=stackLayout;horizontal=1;startSize=26;horizontalStack=0;resizeParent=1;resizeParentMax=0;resizeLast=0;collapsible=1;marginBottom=0;" vertex="1" parent="NJKXZFUliu7iVkCIckWU-1">
                    <mxGeometry x="50" y="513" width="140" height="104" as="geometry"/>
                </mxCell>
                <mxCell id="EQGEEOCIgc-g9IXVqkau-11" value="name" style="text;strokeColor=none;fillColor=none;align=left;verticalAlign=top;spacingLeft=4;spacingRight=4;overflow=hidden;rotatable=0;points=[[0,0.5],[1,0.5]];portConstraint=eastwest;" vertex="1" parent="EQGEEOCIgc-g9IXVqkau-10">
                    <mxGeometry y="26" width="140" height="26" as="geometry"/>
                </mxCell>
                <mxCell id="EQGEEOCIgc-g9IXVqkau-12" value="description" style="text;strokeColor=none;fillColor=none;align=left;verticalAlign=top;spacingLeft=4;spacingRight=4;overflow=hidden;rotatable=0;points=[[0,0.5],[1,0.5]];portConstraint=eastwest;" vertex="1" parent="EQGEEOCIgc-g9IXVqkau-10">
                    <mxGeometry y="52" width="140" height="26" as="geometry"/>
                </mxCell>
                <mxCell id="EQGEEOCIgc-g9IXVqkau-13" value="importance" style="text;strokeColor=none;fillColor=none;align=left;verticalAlign=top;spacingLeft=4;spacingRight=4;overflow=hidden;rotatable=0;points=[[0,0.5],[1,0.5]];portConstraint=eastwest;" vertex="1" parent="EQGEEOCIgc-g9IXVqkau-10">
                    <mxGeometry y="78" width="140" height="26" as="geometry"/>
                </mxCell>
                <mxCell id="EQGEEOCIgc-g9IXVqkau-14" value="" style="endArrow=none;html=1;endFill=0;startArrow=diamond;startFill=1;" edge="1" parent="NJKXZFUliu7iVkCIckWU-1" source="EQGEEOCIgc-g9IXVqkau-0" target="EQGEEOCIgc-g9IXVqkau-10">
                    <mxGeometry width="50" height="50" relative="1" as="geometry">
                        <mxPoint x="320" y="522.0039130434783" as="sourcePoint"/>
                        <mxPoint x="410" y="510.65608695652173" as="targetPoint"/>
                    </mxGeometry>
                </mxCell>
                <mxCell id="EQGEEOCIgc-g9IXVqkau-15" value="0,n" style="edgeLabel;html=1;align=center;verticalAlign=middle;resizable=0;points=[];" vertex="1" connectable="0" parent="EQGEEOCIgc-g9IXVqkau-14">
                    <mxGeometry x="-0.5955" y="3" relative="1" as="geometry">
                        <mxPoint as="offset"/>
                    </mxGeometry>
                </mxCell>
                <mxCell id="EQGEEOCIgc-g9IXVqkau-16" value="0,n" style="edgeLabel;html=1;align=center;verticalAlign=middle;resizable=0;points=[];" vertex="1" connectable="0" parent="EQGEEOCIgc-g9IXVqkau-14">
                    <mxGeometry x="0.7133" relative="1" as="geometry">
                        <mxPoint as="offset"/>
                    </mxGeometry>
                </mxCell>
                <mxCell id="EQGEEOCIgc-g9IXVqkau-17" value="preference" style="swimlane;fontStyle=0;childLayout=stackLayout;horizontal=1;startSize=26;horizontalStack=0;resizeParent=1;resizeParentMax=0;resizeLast=0;collapsible=1;marginBottom=0;" vertex="1" parent="NJKXZFUliu7iVkCIckWU-1">
                    <mxGeometry x="290" y="513" width="140" height="104" as="geometry"/>
                </mxCell>
                <mxCell id="EQGEEOCIgc-g9IXVqkau-18" value="name" style="text;strokeColor=none;fillColor=none;align=left;verticalAlign=top;spacingLeft=4;spacingRight=4;overflow=hidden;rotatable=0;points=[[0,0.5],[1,0.5]];portConstraint=eastwest;" vertex="1" parent="EQGEEOCIgc-g9IXVqkau-17">
                    <mxGeometry y="26" width="140" height="26" as="geometry"/>
                </mxCell>
                <mxCell id="EQGEEOCIgc-g9IXVqkau-19" value="description" style="text;strokeColor=none;fillColor=none;align=left;verticalAlign=top;spacingLeft=4;spacingRight=4;overflow=hidden;rotatable=0;points=[[0,0.5],[1,0.5]];portConstraint=eastwest;" vertex="1" parent="EQGEEOCIgc-g9IXVqkau-17">
                    <mxGeometry y="52" width="140" height="26" as="geometry"/>
                </mxCell>
                <mxCell id="EQGEEOCIgc-g9IXVqkau-20" value="rank" style="text;strokeColor=none;fillColor=none;align=left;verticalAlign=top;spacingLeft=4;spacingRight=4;overflow=hidden;rotatable=0;points=[[0,0.5],[1,0.5]];portConstraint=eastwest;" vertex="1" parent="EQGEEOCIgc-g9IXVqkau-17">
                    <mxGeometry y="78" width="140" height="26" as="geometry"/>
                </mxCell>
                <mxCell id="EQGEEOCIgc-g9IXVqkau-21" value="" style="endArrow=none;html=1;endFill=0;startArrow=diamond;startFill=1;" edge="1" parent="NJKXZFUliu7iVkCIckWU-1" source="EQGEEOCIgc-g9IXVqkau-0" target="EQGEEOCIgc-g9IXVqkau-17">
                    <mxGeometry width="50" height="50" relative="1" as="geometry">
                        <mxPoint x="227.3429951690821" y="424" as="sourcePoint"/>
                        <mxPoint x="154.49275362318838" y="540" as="targetPoint"/>
                    </mxGeometry>
                </mxCell>
                <mxCell id="EQGEEOCIgc-g9IXVqkau-22" value="0,n" style="edgeLabel;html=1;align=center;verticalAlign=middle;resizable=0;points=[];" vertex="1" connectable="0" parent="EQGEEOCIgc-g9IXVqkau-21">
                    <mxGeometry x="-0.5955" y="3" relative="1" as="geometry">
                        <mxPoint as="offset"/>
                    </mxGeometry>
                </mxCell>
                <mxCell id="EQGEEOCIgc-g9IXVqkau-23" value="1,1" style="edgeLabel;html=1;align=center;verticalAlign=middle;resizable=0;points=[];" vertex="1" connectable="0" parent="EQGEEOCIgc-g9IXVqkau-21">
                    <mxGeometry x="0.7133" relative="1" as="geometry">
                        <mxPoint as="offset"/>
                    </mxGeometry>
                </mxCell>
                <mxCell id="EQGEEOCIgc-g9IXVqkau-24" value="food" style="swimlane;fontStyle=0;childLayout=stackLayout;horizontal=1;startSize=26;horizontalStack=0;resizeParent=1;resizeParentMax=0;resizeLast=0;collapsible=1;marginBottom=0;" vertex="1" parent="NJKXZFUliu7iVkCIckWU-1">
                    <mxGeometry x="530" y="526" width="140" height="78" as="geometry"/>
                </mxCell>
                <mxCell id="EQGEEOCIgc-g9IXVqkau-25" value="name" style="text;strokeColor=none;fillColor=none;align=left;verticalAlign=top;spacingLeft=4;spacingRight=4;overflow=hidden;rotatable=0;points=[[0,0.5],[1,0.5]];portConstraint=eastwest;" vertex="1" parent="EQGEEOCIgc-g9IXVqkau-24">
                    <mxGeometry y="26" width="140" height="26" as="geometry"/>
                </mxCell>
                <mxCell id="EQGEEOCIgc-g9IXVqkau-26" value="description" style="text;strokeColor=none;fillColor=none;align=left;verticalAlign=top;spacingLeft=4;spacingRight=4;overflow=hidden;rotatable=0;points=[[0,0.5],[1,0.5]];portConstraint=eastwest;" vertex="1" parent="EQGEEOCIgc-g9IXVqkau-24">
                    <mxGeometry y="52" width="140" height="26" as="geometry"/>
                </mxCell>
                <mxCell id="EQGEEOCIgc-g9IXVqkau-27" value="" style="endArrow=none;html=1;endFill=0;startArrow=diamond;startFill=1;" edge="1" parent="NJKXZFUliu7iVkCIckWU-1" source="EQGEEOCIgc-g9IXVqkau-17" target="EQGEEOCIgc-g9IXVqkau-24">
                    <mxGeometry width="50" height="50" relative="1" as="geometry">
                        <mxPoint x="280" y="500" as="sourcePoint"/>
                        <mxPoint x="330" y="450" as="targetPoint"/>
                    </mxGeometry>
                </mxCell>
                <mxCell id="EQGEEOCIgc-g9IXVqkau-28" value="0,1" style="edgeLabel;html=1;align=center;verticalAlign=middle;resizable=0;points=[];" vertex="1" connectable="0" parent="EQGEEOCIgc-g9IXVqkau-27">
                    <mxGeometry x="-0.64" y="-2" relative="1" as="geometry">
                        <mxPoint as="offset"/>
                    </mxGeometry>
                </mxCell>
                <mxCell id="EQGEEOCIgc-g9IXVqkau-29" value="0,n" style="edgeLabel;html=1;align=center;verticalAlign=middle;resizable=0;points=[];" vertex="1" connectable="0" parent="EQGEEOCIgc-g9IXVqkau-27">
                    <mxGeometry x="0.6984" y="-1" relative="1" as="geometry">
                        <mxPoint as="offset"/>
                    </mxGeometry>
                </mxCell>
                <mxCell id="EQGEEOCIgc-g9IXVqkau-30" value="diet_type" style="swimlane;fontStyle=0;childLayout=stackLayout;horizontal=1;startSize=26;horizontalStack=0;resizeParent=1;resizeParentMax=0;resizeLast=0;collapsible=1;marginBottom=0;" vertex="1" parent="NJKXZFUliu7iVkCIckWU-1">
                    <mxGeometry x="-50" y="310" width="140" height="104" as="geometry"/>
                </mxCell>
                <mxCell id="EQGEEOCIgc-g9IXVqkau-31" value="name" style="text;strokeColor=none;fillColor=none;align=left;verticalAlign=top;spacingLeft=4;spacingRight=4;overflow=hidden;rotatable=0;points=[[0,0.5],[1,0.5]];portConstraint=eastwest;" vertex="1" parent="EQGEEOCIgc-g9IXVqkau-30">
                    <mxGeometry y="26" width="140" height="26" as="geometry"/>
                </mxCell>
                <mxCell id="EQGEEOCIgc-g9IXVqkau-32" value="description" style="text;strokeColor=none;fillColor=none;align=left;verticalAlign=top;spacingLeft=4;spacingRight=4;overflow=hidden;rotatable=0;points=[[0,0.5],[1,0.5]];portConstraint=eastwest;" vertex="1" parent="EQGEEOCIgc-g9IXVqkau-30">
                    <mxGeometry y="52" width="140" height="26" as="geometry"/>
                </mxCell>
                <mxCell id="EQGEEOCIgc-g9IXVqkau-33" value="importance" style="text;strokeColor=none;fillColor=none;align=left;verticalAlign=top;spacingLeft=4;spacingRight=4;overflow=hidden;rotatable=0;points=[[0,0.5],[1,0.5]];portConstraint=eastwest;" vertex="1" parent="EQGEEOCIgc-g9IXVqkau-30">
                    <mxGeometry y="78" width="140" height="26" as="geometry"/>
                </mxCell>
                <mxCell id="EQGEEOCIgc-g9IXVqkau-34" value="" style="endArrow=none;html=1;endFill=0;startArrow=diamond;startFill=1;" edge="1" parent="NJKXZFUliu7iVkCIckWU-1" source="EQGEEOCIgc-g9IXVqkau-10" target="EQGEEOCIgc-g9IXVqkau-30">
                    <mxGeometry width="50" height="50" relative="1" as="geometry">
                        <mxPoint x="330" y="420" as="sourcePoint"/>
                        <mxPoint x="380" y="370" as="targetPoint"/>
                    </mxGeometry>
                </mxCell>
                <mxCell id="EQGEEOCIgc-g9IXVqkau-35" value="" style="endArrow=none;html=1;endFill=0;startArrow=diamond;startFill=1;" edge="1" parent="NJKXZFUliu7iVkCIckWU-1" source="EQGEEOCIgc-g9IXVqkau-24" target="EQGEEOCIgc-g9IXVqkau-24">
                    <mxGeometry width="50" height="50" relative="1" as="geometry">
                        <mxPoint x="710" y="510" as="sourcePoint"/>
                        <mxPoint x="730" y="580" as="targetPoint"/>
                        <Array as="points">
                            <mxPoint x="600" y="430"/>
                            <mxPoint x="730" y="430"/>
                            <mxPoint x="730" y="565"/>
                        </Array>
                    </mxGeometry>
                </mxCell>
                <mxCell id="EQGEEOCIgc-g9IXVqkau-36" value="0,n" style="edgeLabel;html=1;align=center;verticalAlign=middle;resizable=0;points=[];" vertex="1" connectable="0" parent="EQGEEOCIgc-g9IXVqkau-35">
                    <mxGeometry x="-0.8955" y="-1" relative="1" as="geometry">
                        <mxPoint as="offset"/>
                    </mxGeometry>
                </mxCell>
                <mxCell id="EQGEEOCIgc-g9IXVqkau-37" value="0;n" style="edgeLabel;html=1;align=center;verticalAlign=middle;resizable=0;points=[];" vertex="1" connectable="0" parent="EQGEEOCIgc-g9IXVqkau-35">
                    <mxGeometry x="0.9177" relative="1" as="geometry">
                        <mxPoint as="offset"/>
                    </mxGeometry>
                </mxCell>
            </root>
        </mxGraphModel>
    </diagram>
    <diagram id="38aG4AFK009Lid_6R2nt" name="Page-5">
        <mxGraphModel dx="1757" dy="579" grid="1" gridSize="10" guides="1" tooltips="1" connect="1" arrows="1" fold="1" page="1" pageScale="1" pageWidth="827" pageHeight="1169" math="0" shadow="0">
            <root>
                <mxCell id="Z1wwnCZsjnIA3rnKy5-g-0"/>
                <mxCell id="Z1wwnCZsjnIA3rnKy5-g-1" parent="Z1wwnCZsjnIA3rnKy5-g-0"/>
                <mxCell id="D2wz0amjPewoxh5cMFn0-0" value="user" style="swimlane;fontStyle=0;childLayout=stackLayout;horizontal=1;startSize=26;horizontalStack=0;resizeParent=1;resizeParentMax=0;resizeLast=0;collapsible=1;marginBottom=0;" vertex="1" parent="Z1wwnCZsjnIA3rnKy5-g-1">
                    <mxGeometry x="180" y="120" width="140" height="104" as="geometry"/>
                </mxCell>
                <mxCell id="D2wz0amjPewoxh5cMFn0-1" value="login" style="text;strokeColor=none;fillColor=none;align=left;verticalAlign=top;spacingLeft=4;spacingRight=4;overflow=hidden;rotatable=0;points=[[0,0.5],[1,0.5]];portConstraint=eastwest;" vertex="1" parent="D2wz0amjPewoxh5cMFn0-0">
                    <mxGeometry y="26" width="140" height="26" as="geometry"/>
                </mxCell>
                <mxCell id="D2wz0amjPewoxh5cMFn0-2" value="email" style="text;strokeColor=none;fillColor=none;align=left;verticalAlign=top;spacingLeft=4;spacingRight=4;overflow=hidden;rotatable=0;points=[[0,0.5],[1,0.5]];portConstraint=eastwest;" vertex="1" parent="D2wz0amjPewoxh5cMFn0-0">
                    <mxGeometry y="52" width="140" height="26" as="geometry"/>
                </mxCell>
                <mxCell id="D2wz0amjPewoxh5cMFn0-3" value="password" style="text;strokeColor=none;fillColor=none;align=left;verticalAlign=top;spacingLeft=4;spacingRight=4;overflow=hidden;rotatable=0;points=[[0,0.5],[1,0.5]];portConstraint=eastwest;" vertex="1" parent="D2wz0amjPewoxh5cMFn0-0">
                    <mxGeometry y="78" width="140" height="26" as="geometry"/>
                </mxCell>
                <mxCell id="D2wz0amjPewoxh5cMFn0-4" value="user_role" style="swimlane;fontStyle=0;childLayout=stackLayout;horizontal=1;startSize=26;horizontalStack=0;resizeParent=1;resizeParentMax=0;resizeLast=0;collapsible=1;marginBottom=0;" vertex="1" parent="Z1wwnCZsjnIA3rnKy5-g-1">
                    <mxGeometry x="180" y="10" width="140" height="78" as="geometry"/>
                </mxCell>
                <mxCell id="D2wz0amjPewoxh5cMFn0-5" value="name" style="text;strokeColor=none;fillColor=none;align=left;verticalAlign=top;spacingLeft=4;spacingRight=4;overflow=hidden;rotatable=0;points=[[0,0.5],[1,0.5]];portConstraint=eastwest;" vertex="1" parent="D2wz0amjPewoxh5cMFn0-4">
                    <mxGeometry y="26" width="140" height="26" as="geometry"/>
                </mxCell>
                <mxCell id="D2wz0amjPewoxh5cMFn0-6" value="description" style="text;strokeColor=none;fillColor=none;align=left;verticalAlign=top;spacingLeft=4;spacingRight=4;overflow=hidden;rotatable=0;points=[[0,0.5],[1,0.5]];portConstraint=eastwest;" vertex="1" parent="D2wz0amjPewoxh5cMFn0-4">
                    <mxGeometry y="52" width="140" height="26" as="geometry"/>
                </mxCell>
                <mxCell id="D2wz0amjPewoxh5cMFn0-7" value="" style="endArrow=none;html=1;endFill=0;startArrow=diamond;startFill=1;" edge="1" parent="Z1wwnCZsjnIA3rnKy5-g-1" source="D2wz0amjPewoxh5cMFn0-0" target="D2wz0amjPewoxh5cMFn0-4">
                    <mxGeometry width="50" height="50" relative="1" as="geometry">
                        <mxPoint x="380" y="380" as="sourcePoint"/>
                        <mxPoint x="430" y="330" as="targetPoint"/>
                    </mxGeometry>
                </mxCell>
                <mxCell id="D2wz0amjPewoxh5cMFn0-8" value="1,1" style="edgeLabel;html=1;align=center;verticalAlign=middle;resizable=0;points=[];" vertex="1" connectable="0" parent="D2wz0amjPewoxh5cMFn0-7">
                    <mxGeometry x="-0.7949" y="-1" relative="1" as="geometry">
                        <mxPoint y="-17.59" as="offset"/>
                    </mxGeometry>
                </mxCell>
                <mxCell id="D2wz0amjPewoxh5cMFn0-9" value="0,n" style="edgeLabel;html=1;align=center;verticalAlign=middle;resizable=0;points=[];" vertex="1" connectable="0" parent="D2wz0amjPewoxh5cMFn0-7">
                    <mxGeometry x="0.8072" relative="1" as="geometry">
                        <mxPoint as="offset"/>
                    </mxGeometry>
                </mxCell>
                <mxCell id="D2wz0amjPewoxh5cMFn0-10" value="diet" style="swimlane;fontStyle=0;childLayout=stackLayout;horizontal=1;startSize=26;horizontalStack=0;resizeParent=1;resizeParentMax=0;resizeLast=0;collapsible=1;marginBottom=0;" vertex="1" parent="Z1wwnCZsjnIA3rnKy5-g-1">
                    <mxGeometry x="50" y="513" width="140" height="104" as="geometry"/>
                </mxCell>
                <mxCell id="D2wz0amjPewoxh5cMFn0-11" value="name" style="text;strokeColor=none;fillColor=none;align=left;verticalAlign=top;spacingLeft=4;spacingRight=4;overflow=hidden;rotatable=0;points=[[0,0.5],[1,0.5]];portConstraint=eastwest;" vertex="1" parent="D2wz0amjPewoxh5cMFn0-10">
                    <mxGeometry y="26" width="140" height="26" as="geometry"/>
                </mxCell>
                <mxCell id="D2wz0amjPewoxh5cMFn0-12" value="description" style="text;strokeColor=none;fillColor=none;align=left;verticalAlign=top;spacingLeft=4;spacingRight=4;overflow=hidden;rotatable=0;points=[[0,0.5],[1,0.5]];portConstraint=eastwest;" vertex="1" parent="D2wz0amjPewoxh5cMFn0-10">
                    <mxGeometry y="52" width="140" height="26" as="geometry"/>
                </mxCell>
                <mxCell id="D2wz0amjPewoxh5cMFn0-13" value="importance" style="text;strokeColor=none;fillColor=none;align=left;verticalAlign=top;spacingLeft=4;spacingRight=4;overflow=hidden;rotatable=0;points=[[0,0.5],[1,0.5]];portConstraint=eastwest;" vertex="1" parent="D2wz0amjPewoxh5cMFn0-10">
                    <mxGeometry y="78" width="140" height="26" as="geometry"/>
                </mxCell>
                <mxCell id="D2wz0amjPewoxh5cMFn0-14" value="" style="endArrow=none;html=1;endFill=0;startArrow=diamond;startFill=1;" edge="1" parent="Z1wwnCZsjnIA3rnKy5-g-1" source="D2wz0amjPewoxh5cMFn0-0" target="D2wz0amjPewoxh5cMFn0-10">
                    <mxGeometry width="50" height="50" relative="1" as="geometry">
                        <mxPoint x="320" y="522.0039130434783" as="sourcePoint"/>
                        <mxPoint x="410" y="510.65608695652173" as="targetPoint"/>
                    </mxGeometry>
                </mxCell>
                <mxCell id="D2wz0amjPewoxh5cMFn0-15" value="0,n" style="edgeLabel;html=1;align=center;verticalAlign=middle;resizable=0;points=[];" vertex="1" connectable="0" parent="D2wz0amjPewoxh5cMFn0-14">
                    <mxGeometry x="-0.5955" y="3" relative="1" as="geometry">
                        <mxPoint as="offset"/>
                    </mxGeometry>
                </mxCell>
                <mxCell id="D2wz0amjPewoxh5cMFn0-16" value="0,n" style="edgeLabel;html=1;align=center;verticalAlign=middle;resizable=0;points=[];" vertex="1" connectable="0" parent="D2wz0amjPewoxh5cMFn0-14">
                    <mxGeometry x="0.7133" relative="1" as="geometry">
                        <mxPoint as="offset"/>
                    </mxGeometry>
                </mxCell>
                <mxCell id="D2wz0amjPewoxh5cMFn0-17" value="preference" style="swimlane;fontStyle=0;childLayout=stackLayout;horizontal=1;startSize=26;horizontalStack=0;resizeParent=1;resizeParentMax=0;resizeLast=0;collapsible=1;marginBottom=0;" vertex="1" parent="Z1wwnCZsjnIA3rnKy5-g-1">
                    <mxGeometry x="290" y="513" width="140" height="104" as="geometry"/>
                </mxCell>
                <mxCell id="D2wz0amjPewoxh5cMFn0-18" value="name" style="text;strokeColor=none;fillColor=none;align=left;verticalAlign=top;spacingLeft=4;spacingRight=4;overflow=hidden;rotatable=0;points=[[0,0.5],[1,0.5]];portConstraint=eastwest;" vertex="1" parent="D2wz0amjPewoxh5cMFn0-17">
                    <mxGeometry y="26" width="140" height="26" as="geometry"/>
                </mxCell>
                <mxCell id="D2wz0amjPewoxh5cMFn0-19" value="description" style="text;strokeColor=none;fillColor=none;align=left;verticalAlign=top;spacingLeft=4;spacingRight=4;overflow=hidden;rotatable=0;points=[[0,0.5],[1,0.5]];portConstraint=eastwest;" vertex="1" parent="D2wz0amjPewoxh5cMFn0-17">
                    <mxGeometry y="52" width="140" height="26" as="geometry"/>
                </mxCell>
                <mxCell id="D2wz0amjPewoxh5cMFn0-20" value="rank" style="text;strokeColor=none;fillColor=none;align=left;verticalAlign=top;spacingLeft=4;spacingRight=4;overflow=hidden;rotatable=0;points=[[0,0.5],[1,0.5]];portConstraint=eastwest;" vertex="1" parent="D2wz0amjPewoxh5cMFn0-17">
                    <mxGeometry y="78" width="140" height="26" as="geometry"/>
                </mxCell>
                <mxCell id="D2wz0amjPewoxh5cMFn0-21" value="" style="endArrow=none;html=1;endFill=0;startArrow=diamond;startFill=1;" edge="1" parent="Z1wwnCZsjnIA3rnKy5-g-1" source="D2wz0amjPewoxh5cMFn0-0" target="D2wz0amjPewoxh5cMFn0-17">
                    <mxGeometry width="50" height="50" relative="1" as="geometry">
                        <mxPoint x="227.3429951690821" y="424" as="sourcePoint"/>
                        <mxPoint x="154.49275362318838" y="540" as="targetPoint"/>
                    </mxGeometry>
                </mxCell>
                <mxCell id="D2wz0amjPewoxh5cMFn0-22" value="0,n" style="edgeLabel;html=1;align=center;verticalAlign=middle;resizable=0;points=[];" vertex="1" connectable="0" parent="D2wz0amjPewoxh5cMFn0-21">
                    <mxGeometry x="-0.5955" y="3" relative="1" as="geometry">
                        <mxPoint as="offset"/>
                    </mxGeometry>
                </mxCell>
                <mxCell id="D2wz0amjPewoxh5cMFn0-23" value="1,1" style="edgeLabel;html=1;align=center;verticalAlign=middle;resizable=0;points=[];" vertex="1" connectable="0" parent="D2wz0amjPewoxh5cMFn0-21">
                    <mxGeometry x="0.7133" relative="1" as="geometry">
                        <mxPoint as="offset"/>
                    </mxGeometry>
                </mxCell>
                <mxCell id="D2wz0amjPewoxh5cMFn0-24" value="food" style="swimlane;fontStyle=0;childLayout=stackLayout;horizontal=1;startSize=26;horizontalStack=0;resizeParent=1;resizeParentMax=0;resizeLast=0;collapsible=1;marginBottom=0;" vertex="1" parent="Z1wwnCZsjnIA3rnKy5-g-1">
                    <mxGeometry x="530" y="526" width="140" height="78" as="geometry"/>
                </mxCell>
                <mxCell id="D2wz0amjPewoxh5cMFn0-25" value="name" style="text;strokeColor=none;fillColor=none;align=left;verticalAlign=top;spacingLeft=4;spacingRight=4;overflow=hidden;rotatable=0;points=[[0,0.5],[1,0.5]];portConstraint=eastwest;" vertex="1" parent="D2wz0amjPewoxh5cMFn0-24">
                    <mxGeometry y="26" width="140" height="26" as="geometry"/>
                </mxCell>
                <mxCell id="D2wz0amjPewoxh5cMFn0-26" value="description" style="text;strokeColor=none;fillColor=none;align=left;verticalAlign=top;spacingLeft=4;spacingRight=4;overflow=hidden;rotatable=0;points=[[0,0.5],[1,0.5]];portConstraint=eastwest;" vertex="1" parent="D2wz0amjPewoxh5cMFn0-24">
                    <mxGeometry y="52" width="140" height="26" as="geometry"/>
                </mxCell>
                <mxCell id="D2wz0amjPewoxh5cMFn0-27" value="" style="endArrow=none;html=1;endFill=0;startArrow=diamond;startFill=1;" edge="1" parent="Z1wwnCZsjnIA3rnKy5-g-1" source="D2wz0amjPewoxh5cMFn0-17" target="D2wz0amjPewoxh5cMFn0-24">
                    <mxGeometry width="50" height="50" relative="1" as="geometry">
                        <mxPoint x="280" y="500" as="sourcePoint"/>
                        <mxPoint x="330" y="450" as="targetPoint"/>
                    </mxGeometry>
                </mxCell>
                <mxCell id="D2wz0amjPewoxh5cMFn0-28" value="0,1" style="edgeLabel;html=1;align=center;verticalAlign=middle;resizable=0;points=[];" vertex="1" connectable="0" parent="D2wz0amjPewoxh5cMFn0-27">
                    <mxGeometry x="-0.64" y="-2" relative="1" as="geometry">
                        <mxPoint as="offset"/>
                    </mxGeometry>
                </mxCell>
                <mxCell id="D2wz0amjPewoxh5cMFn0-29" value="0,n" style="edgeLabel;html=1;align=center;verticalAlign=middle;resizable=0;points=[];" vertex="1" connectable="0" parent="D2wz0amjPewoxh5cMFn0-27">
                    <mxGeometry x="0.6984" y="-1" relative="1" as="geometry">
                        <mxPoint as="offset"/>
                    </mxGeometry>
                </mxCell>
                <mxCell id="D2wz0amjPewoxh5cMFn0-30" value="diet_type" style="swimlane;fontStyle=0;childLayout=stackLayout;horizontal=1;startSize=26;horizontalStack=0;resizeParent=1;resizeParentMax=0;resizeLast=0;collapsible=1;marginBottom=0;" vertex="1" parent="Z1wwnCZsjnIA3rnKy5-g-1">
                    <mxGeometry x="-50" y="310" width="140" height="104" as="geometry"/>
                </mxCell>
                <mxCell id="D2wz0amjPewoxh5cMFn0-31" value="name" style="text;strokeColor=none;fillColor=none;align=left;verticalAlign=top;spacingLeft=4;spacingRight=4;overflow=hidden;rotatable=0;points=[[0,0.5],[1,0.5]];portConstraint=eastwest;" vertex="1" parent="D2wz0amjPewoxh5cMFn0-30">
                    <mxGeometry y="26" width="140" height="26" as="geometry"/>
                </mxCell>
                <mxCell id="D2wz0amjPewoxh5cMFn0-32" value="description" style="text;strokeColor=none;fillColor=none;align=left;verticalAlign=top;spacingLeft=4;spacingRight=4;overflow=hidden;rotatable=0;points=[[0,0.5],[1,0.5]];portConstraint=eastwest;" vertex="1" parent="D2wz0amjPewoxh5cMFn0-30">
                    <mxGeometry y="52" width="140" height="26" as="geometry"/>
                </mxCell>
                <mxCell id="D2wz0amjPewoxh5cMFn0-33" value="importance" style="text;strokeColor=none;fillColor=none;align=left;verticalAlign=top;spacingLeft=4;spacingRight=4;overflow=hidden;rotatable=0;points=[[0,0.5],[1,0.5]];portConstraint=eastwest;" vertex="1" parent="D2wz0amjPewoxh5cMFn0-30">
                    <mxGeometry y="78" width="140" height="26" as="geometry"/>
                </mxCell>
                <mxCell id="D2wz0amjPewoxh5cMFn0-34" value="" style="endArrow=none;html=1;endFill=0;startArrow=diamond;startFill=1;" edge="1" parent="Z1wwnCZsjnIA3rnKy5-g-1" source="D2wz0amjPewoxh5cMFn0-10" target="D2wz0amjPewoxh5cMFn0-30">
                    <mxGeometry width="50" height="50" relative="1" as="geometry">
                        <mxPoint x="330" y="420" as="sourcePoint"/>
                        <mxPoint x="380" y="370" as="targetPoint"/>
                    </mxGeometry>
                </mxCell>
                <mxCell id="D2wz0amjPewoxh5cMFn0-35" value="" style="endArrow=none;html=1;endFill=0;startArrow=diamond;startFill=1;" edge="1" parent="Z1wwnCZsjnIA3rnKy5-g-1" source="D2wz0amjPewoxh5cMFn0-24" target="D2wz0amjPewoxh5cMFn0-24">
                    <mxGeometry width="50" height="50" relative="1" as="geometry">
                        <mxPoint x="710" y="510" as="sourcePoint"/>
                        <mxPoint x="730" y="580" as="targetPoint"/>
                        <Array as="points">
                            <mxPoint x="600" y="430"/>
                            <mxPoint x="730" y="430"/>
                            <mxPoint x="730" y="565"/>
                        </Array>
                    </mxGeometry>
                </mxCell>
                <mxCell id="D2wz0amjPewoxh5cMFn0-36" value="0,n" style="edgeLabel;html=1;align=center;verticalAlign=middle;resizable=0;points=[];" vertex="1" connectable="0" parent="D2wz0amjPewoxh5cMFn0-35">
                    <mxGeometry x="-0.8955" y="-1" relative="1" as="geometry">
                        <mxPoint as="offset"/>
                    </mxGeometry>
                </mxCell>
                <mxCell id="D2wz0amjPewoxh5cMFn0-37" value="0;n" style="edgeLabel;html=1;align=center;verticalAlign=middle;resizable=0;points=[];" vertex="1" connectable="0" parent="D2wz0amjPewoxh5cMFn0-35">
                    <mxGeometry x="0.9177" relative="1" as="geometry">
                        <mxPoint as="offset"/>
                    </mxGeometry>
                </mxCell>
                <mxCell id="D2wz0amjPewoxh5cMFn0-38" value="sticky" style="swimlane;fontStyle=0;childLayout=stackLayout;horizontal=1;startSize=26;horizontalStack=0;resizeParent=1;resizeParentMax=0;resizeLast=0;collapsible=1;marginBottom=0;dashed=1;" vertex="1" parent="Z1wwnCZsjnIA3rnKy5-g-1">
                    <mxGeometry x="570" y="146" width="140" height="78" as="geometry"/>
                </mxCell>
                <mxCell id="D2wz0amjPewoxh5cMFn0-39" value="title" style="text;strokeColor=none;fillColor=none;align=left;verticalAlign=top;spacingLeft=4;spacingRight=4;overflow=hidden;rotatable=0;points=[[0,0.5],[1,0.5]];portConstraint=eastwest;" vertex="1" parent="D2wz0amjPewoxh5cMFn0-38">
                    <mxGeometry y="26" width="140" height="26" as="geometry"/>
                </mxCell>
                <mxCell id="D2wz0amjPewoxh5cMFn0-40" value="content" style="text;strokeColor=none;fillColor=none;align=left;verticalAlign=top;spacingLeft=4;spacingRight=4;overflow=hidden;rotatable=0;points=[[0,0.5],[1,0.5]];portConstraint=eastwest;" vertex="1" parent="D2wz0amjPewoxh5cMFn0-38">
                    <mxGeometry y="52" width="140" height="26" as="geometry"/>
                </mxCell>
            </root>
        </mxGraphModel>
    </diagram>
    <diagram id="TrvtOhH4bPDgG2eQNZ40" name="Page-6">
        <mxGraphModel dx="1757" dy="1748" grid="1" gridSize="10" guides="1" tooltips="1" connect="1" arrows="1" fold="1" page="1" pageScale="1" pageWidth="827" pageHeight="1169" math="0" shadow="0">
            <root>
                <mxCell id="J8TFN3CifokqzWTNaohK-0"/>
                <mxCell id="J8TFN3CifokqzWTNaohK-1" parent="J8TFN3CifokqzWTNaohK-0"/>
                <mxCell id="J8TFN3CifokqzWTNaohK-2" value="user" style="swimlane;fontStyle=0;childLayout=stackLayout;horizontal=1;startSize=26;horizontalStack=0;resizeParent=1;resizeParentMax=0;resizeLast=0;collapsible=1;marginBottom=0;" vertex="1" parent="J8TFN3CifokqzWTNaohK-1">
                    <mxGeometry x="180" y="120" width="140" height="104" as="geometry"/>
                </mxCell>
                <mxCell id="J8TFN3CifokqzWTNaohK-3" value="login" style="text;strokeColor=none;fillColor=none;align=left;verticalAlign=top;spacingLeft=4;spacingRight=4;overflow=hidden;rotatable=0;points=[[0,0.5],[1,0.5]];portConstraint=eastwest;" vertex="1" parent="J8TFN3CifokqzWTNaohK-2">
                    <mxGeometry y="26" width="140" height="26" as="geometry"/>
                </mxCell>
                <mxCell id="J8TFN3CifokqzWTNaohK-4" value="email" style="text;strokeColor=none;fillColor=none;align=left;verticalAlign=top;spacingLeft=4;spacingRight=4;overflow=hidden;rotatable=0;points=[[0,0.5],[1,0.5]];portConstraint=eastwest;" vertex="1" parent="J8TFN3CifokqzWTNaohK-2">
                    <mxGeometry y="52" width="140" height="26" as="geometry"/>
                </mxCell>
                <mxCell id="J8TFN3CifokqzWTNaohK-5" value="password" style="text;strokeColor=none;fillColor=none;align=left;verticalAlign=top;spacingLeft=4;spacingRight=4;overflow=hidden;rotatable=0;points=[[0,0.5],[1,0.5]];portConstraint=eastwest;" vertex="1" parent="J8TFN3CifokqzWTNaohK-2">
                    <mxGeometry y="78" width="140" height="26" as="geometry"/>
                </mxCell>
                <mxCell id="J8TFN3CifokqzWTNaohK-6" value="user_role" style="swimlane;fontStyle=0;childLayout=stackLayout;horizontal=1;startSize=26;horizontalStack=0;resizeParent=1;resizeParentMax=0;resizeLast=0;collapsible=1;marginBottom=0;" vertex="1" parent="J8TFN3CifokqzWTNaohK-1">
                    <mxGeometry x="180" y="-60" width="140" height="78" as="geometry"/>
                </mxCell>
                <mxCell id="J8TFN3CifokqzWTNaohK-7" value="name" style="text;strokeColor=none;fillColor=none;align=left;verticalAlign=top;spacingLeft=4;spacingRight=4;overflow=hidden;rotatable=0;points=[[0,0.5],[1,0.5]];portConstraint=eastwest;" vertex="1" parent="J8TFN3CifokqzWTNaohK-6">
                    <mxGeometry y="26" width="140" height="26" as="geometry"/>
                </mxCell>
                <mxCell id="J8TFN3CifokqzWTNaohK-8" value="description" style="text;strokeColor=none;fillColor=none;align=left;verticalAlign=top;spacingLeft=4;spacingRight=4;overflow=hidden;rotatable=0;points=[[0,0.5],[1,0.5]];portConstraint=eastwest;" vertex="1" parent="J8TFN3CifokqzWTNaohK-6">
                    <mxGeometry y="52" width="140" height="26" as="geometry"/>
                </mxCell>
                <mxCell id="J8TFN3CifokqzWTNaohK-9" value="" style="endArrow=none;html=1;endFill=0;startArrow=diamond;startFill=1;" edge="1" parent="J8TFN3CifokqzWTNaohK-1" source="J8TFN3CifokqzWTNaohK-2" target="J8TFN3CifokqzWTNaohK-6">
                    <mxGeometry width="50" height="50" relative="1" as="geometry">
                        <mxPoint x="380" y="380" as="sourcePoint"/>
                        <mxPoint x="430" y="330" as="targetPoint"/>
                    </mxGeometry>
                </mxCell>
                <mxCell id="J8TFN3CifokqzWTNaohK-10" value="1,1" style="edgeLabel;html=1;align=center;verticalAlign=middle;resizable=0;points=[];" vertex="1" connectable="0" parent="J8TFN3CifokqzWTNaohK-9">
                    <mxGeometry x="-0.7949" y="-1" relative="1" as="geometry">
                        <mxPoint y="-17.59" as="offset"/>
                    </mxGeometry>
                </mxCell>
                <mxCell id="J8TFN3CifokqzWTNaohK-11" value="0,n" style="edgeLabel;html=1;align=center;verticalAlign=middle;resizable=0;points=[];" vertex="1" connectable="0" parent="J8TFN3CifokqzWTNaohK-9">
                    <mxGeometry x="0.8072" relative="1" as="geometry">
                        <mxPoint as="offset"/>
                    </mxGeometry>
                </mxCell>
                <mxCell id="J8TFN3CifokqzWTNaohK-12" value="diet" style="swimlane;fontStyle=0;childLayout=stackLayout;horizontal=1;startSize=26;horizontalStack=0;resizeParent=1;resizeParentMax=0;resizeLast=0;collapsible=1;marginBottom=0;" vertex="1" parent="J8TFN3CifokqzWTNaohK-1">
                    <mxGeometry x="50" y="513" width="140" height="104" as="geometry"/>
                </mxCell>
                <mxCell id="J8TFN3CifokqzWTNaohK-13" value="name" style="text;strokeColor=none;fillColor=none;align=left;verticalAlign=top;spacingLeft=4;spacingRight=4;overflow=hidden;rotatable=0;points=[[0,0.5],[1,0.5]];portConstraint=eastwest;" vertex="1" parent="J8TFN3CifokqzWTNaohK-12">
                    <mxGeometry y="26" width="140" height="26" as="geometry"/>
                </mxCell>
                <mxCell id="J8TFN3CifokqzWTNaohK-14" value="description" style="text;strokeColor=none;fillColor=none;align=left;verticalAlign=top;spacingLeft=4;spacingRight=4;overflow=hidden;rotatable=0;points=[[0,0.5],[1,0.5]];portConstraint=eastwest;" vertex="1" parent="J8TFN3CifokqzWTNaohK-12">
                    <mxGeometry y="52" width="140" height="26" as="geometry"/>
                </mxCell>
                <mxCell id="J8TFN3CifokqzWTNaohK-15" value="importance" style="text;strokeColor=none;fillColor=none;align=left;verticalAlign=top;spacingLeft=4;spacingRight=4;overflow=hidden;rotatable=0;points=[[0,0.5],[1,0.5]];portConstraint=eastwest;" vertex="1" parent="J8TFN3CifokqzWTNaohK-12">
                    <mxGeometry y="78" width="140" height="26" as="geometry"/>
                </mxCell>
                <mxCell id="J8TFN3CifokqzWTNaohK-16" value="" style="endArrow=none;html=1;endFill=0;startArrow=diamond;startFill=1;" edge="1" parent="J8TFN3CifokqzWTNaohK-1" source="J8TFN3CifokqzWTNaohK-2" target="J8TFN3CifokqzWTNaohK-12">
                    <mxGeometry width="50" height="50" relative="1" as="geometry">
                        <mxPoint x="320" y="522.0039130434783" as="sourcePoint"/>
                        <mxPoint x="410" y="510.65608695652173" as="targetPoint"/>
                    </mxGeometry>
                </mxCell>
                <mxCell id="J8TFN3CifokqzWTNaohK-17" value="0,n" style="edgeLabel;html=1;align=center;verticalAlign=middle;resizable=0;points=[];" vertex="1" connectable="0" parent="J8TFN3CifokqzWTNaohK-16">
                    <mxGeometry x="-0.5955" y="3" relative="1" as="geometry">
                        <mxPoint as="offset"/>
                    </mxGeometry>
                </mxCell>
                <mxCell id="J8TFN3CifokqzWTNaohK-18" value="0,n" style="edgeLabel;html=1;align=center;verticalAlign=middle;resizable=0;points=[];" vertex="1" connectable="0" parent="J8TFN3CifokqzWTNaohK-16">
                    <mxGeometry x="0.7133" relative="1" as="geometry">
                        <mxPoint as="offset"/>
                    </mxGeometry>
                </mxCell>
                <mxCell id="J8TFN3CifokqzWTNaohK-19" value="preference" style="swimlane;fontStyle=0;childLayout=stackLayout;horizontal=1;startSize=26;horizontalStack=0;resizeParent=1;resizeParentMax=0;resizeLast=0;collapsible=1;marginBottom=0;" vertex="1" parent="J8TFN3CifokqzWTNaohK-1">
                    <mxGeometry x="290" y="513" width="140" height="104" as="geometry"/>
                </mxCell>
                <mxCell id="J8TFN3CifokqzWTNaohK-20" value="name" style="text;strokeColor=none;fillColor=none;align=left;verticalAlign=top;spacingLeft=4;spacingRight=4;overflow=hidden;rotatable=0;points=[[0,0.5],[1,0.5]];portConstraint=eastwest;" vertex="1" parent="J8TFN3CifokqzWTNaohK-19">
                    <mxGeometry y="26" width="140" height="26" as="geometry"/>
                </mxCell>
                <mxCell id="J8TFN3CifokqzWTNaohK-21" value="description" style="text;strokeColor=none;fillColor=none;align=left;verticalAlign=top;spacingLeft=4;spacingRight=4;overflow=hidden;rotatable=0;points=[[0,0.5],[1,0.5]];portConstraint=eastwest;" vertex="1" parent="J8TFN3CifokqzWTNaohK-19">
                    <mxGeometry y="52" width="140" height="26" as="geometry"/>
                </mxCell>
                <mxCell id="J8TFN3CifokqzWTNaohK-22" value="rank" style="text;strokeColor=none;fillColor=none;align=left;verticalAlign=top;spacingLeft=4;spacingRight=4;overflow=hidden;rotatable=0;points=[[0,0.5],[1,0.5]];portConstraint=eastwest;" vertex="1" parent="J8TFN3CifokqzWTNaohK-19">
                    <mxGeometry y="78" width="140" height="26" as="geometry"/>
                </mxCell>
                <mxCell id="J8TFN3CifokqzWTNaohK-23" value="" style="endArrow=none;html=1;endFill=0;startArrow=diamond;startFill=1;" edge="1" parent="J8TFN3CifokqzWTNaohK-1" source="J8TFN3CifokqzWTNaohK-2" target="J8TFN3CifokqzWTNaohK-19">
                    <mxGeometry width="50" height="50" relative="1" as="geometry">
                        <mxPoint x="227.3429951690821" y="424" as="sourcePoint"/>
                        <mxPoint x="154.49275362318838" y="540" as="targetPoint"/>
                    </mxGeometry>
                </mxCell>
                <mxCell id="J8TFN3CifokqzWTNaohK-24" value="0,n" style="edgeLabel;html=1;align=center;verticalAlign=middle;resizable=0;points=[];" vertex="1" connectable="0" parent="J8TFN3CifokqzWTNaohK-23">
                    <mxGeometry x="-0.5955" y="3" relative="1" as="geometry">
                        <mxPoint as="offset"/>
                    </mxGeometry>
                </mxCell>
                <mxCell id="J8TFN3CifokqzWTNaohK-25" value="1,1" style="edgeLabel;html=1;align=center;verticalAlign=middle;resizable=0;points=[];" vertex="1" connectable="0" parent="J8TFN3CifokqzWTNaohK-23">
                    <mxGeometry x="0.7133" relative="1" as="geometry">
                        <mxPoint as="offset"/>
                    </mxGeometry>
                </mxCell>
                <mxCell id="J8TFN3CifokqzWTNaohK-26" value="food" style="swimlane;fontStyle=0;childLayout=stackLayout;horizontal=1;startSize=26;horizontalStack=0;resizeParent=1;resizeParentMax=0;resizeLast=0;collapsible=1;marginBottom=0;" vertex="1" parent="J8TFN3CifokqzWTNaohK-1">
                    <mxGeometry x="530" y="526" width="140" height="78" as="geometry"/>
                </mxCell>
                <mxCell id="J8TFN3CifokqzWTNaohK-27" value="name" style="text;strokeColor=none;fillColor=none;align=left;verticalAlign=top;spacingLeft=4;spacingRight=4;overflow=hidden;rotatable=0;points=[[0,0.5],[1,0.5]];portConstraint=eastwest;" vertex="1" parent="J8TFN3CifokqzWTNaohK-26">
                    <mxGeometry y="26" width="140" height="26" as="geometry"/>
                </mxCell>
                <mxCell id="J8TFN3CifokqzWTNaohK-28" value="description" style="text;strokeColor=none;fillColor=none;align=left;verticalAlign=top;spacingLeft=4;spacingRight=4;overflow=hidden;rotatable=0;points=[[0,0.5],[1,0.5]];portConstraint=eastwest;" vertex="1" parent="J8TFN3CifokqzWTNaohK-26">
                    <mxGeometry y="52" width="140" height="26" as="geometry"/>
                </mxCell>
                <mxCell id="J8TFN3CifokqzWTNaohK-29" value="" style="endArrow=none;html=1;endFill=0;startArrow=diamond;startFill=1;" edge="1" parent="J8TFN3CifokqzWTNaohK-1" source="J8TFN3CifokqzWTNaohK-19" target="J8TFN3CifokqzWTNaohK-26">
                    <mxGeometry width="50" height="50" relative="1" as="geometry">
                        <mxPoint x="280" y="500" as="sourcePoint"/>
                        <mxPoint x="330" y="450" as="targetPoint"/>
                    </mxGeometry>
                </mxCell>
                <mxCell id="J8TFN3CifokqzWTNaohK-30" value="0,1" style="edgeLabel;html=1;align=center;verticalAlign=middle;resizable=0;points=[];" vertex="1" connectable="0" parent="J8TFN3CifokqzWTNaohK-29">
                    <mxGeometry x="-0.64" y="-2" relative="1" as="geometry">
                        <mxPoint as="offset"/>
                    </mxGeometry>
                </mxCell>
                <mxCell id="J8TFN3CifokqzWTNaohK-31" value="0,n" style="edgeLabel;html=1;align=center;verticalAlign=middle;resizable=0;points=[];" vertex="1" connectable="0" parent="J8TFN3CifokqzWTNaohK-29">
                    <mxGeometry x="0.6984" y="-1" relative="1" as="geometry">
                        <mxPoint as="offset"/>
                    </mxGeometry>
                </mxCell>
                <mxCell id="J8TFN3CifokqzWTNaohK-32" value="diet_type" style="swimlane;fontStyle=0;childLayout=stackLayout;horizontal=1;startSize=26;horizontalStack=0;resizeParent=1;resizeParentMax=0;resizeLast=0;collapsible=1;marginBottom=0;" vertex="1" parent="J8TFN3CifokqzWTNaohK-1">
                    <mxGeometry x="-50" y="310" width="140" height="104" as="geometry"/>
                </mxCell>
                <mxCell id="J8TFN3CifokqzWTNaohK-33" value="name" style="text;strokeColor=none;fillColor=none;align=left;verticalAlign=top;spacingLeft=4;spacingRight=4;overflow=hidden;rotatable=0;points=[[0,0.5],[1,0.5]];portConstraint=eastwest;" vertex="1" parent="J8TFN3CifokqzWTNaohK-32">
                    <mxGeometry y="26" width="140" height="26" as="geometry"/>
                </mxCell>
                <mxCell id="J8TFN3CifokqzWTNaohK-34" value="description" style="text;strokeColor=none;fillColor=none;align=left;verticalAlign=top;spacingLeft=4;spacingRight=4;overflow=hidden;rotatable=0;points=[[0,0.5],[1,0.5]];portConstraint=eastwest;" vertex="1" parent="J8TFN3CifokqzWTNaohK-32">
                    <mxGeometry y="52" width="140" height="26" as="geometry"/>
                </mxCell>
                <mxCell id="J8TFN3CifokqzWTNaohK-35" value="importance" style="text;strokeColor=none;fillColor=none;align=left;verticalAlign=top;spacingLeft=4;spacingRight=4;overflow=hidden;rotatable=0;points=[[0,0.5],[1,0.5]];portConstraint=eastwest;" vertex="1" parent="J8TFN3CifokqzWTNaohK-32">
                    <mxGeometry y="78" width="140" height="26" as="geometry"/>
                </mxCell>
                <mxCell id="J8TFN3CifokqzWTNaohK-36" value="" style="endArrow=none;html=1;endFill=0;startArrow=diamond;startFill=1;" edge="1" parent="J8TFN3CifokqzWTNaohK-1" source="J8TFN3CifokqzWTNaohK-12" target="J8TFN3CifokqzWTNaohK-32">
                    <mxGeometry width="50" height="50" relative="1" as="geometry">
                        <mxPoint x="330" y="420" as="sourcePoint"/>
                        <mxPoint x="380" y="370" as="targetPoint"/>
                    </mxGeometry>
                </mxCell>
                <mxCell id="J8TFN3CifokqzWTNaohK-37" value="" style="endArrow=none;html=1;endFill=0;startArrow=diamond;startFill=1;" edge="1" parent="J8TFN3CifokqzWTNaohK-1" source="J8TFN3CifokqzWTNaohK-26" target="J8TFN3CifokqzWTNaohK-26">
                    <mxGeometry width="50" height="50" relative="1" as="geometry">
                        <mxPoint x="710" y="510" as="sourcePoint"/>
                        <mxPoint x="730" y="580" as="targetPoint"/>
                        <Array as="points">
                            <mxPoint x="600" y="430"/>
                            <mxPoint x="730" y="430"/>
                            <mxPoint x="730" y="565"/>
                        </Array>
                    </mxGeometry>
                </mxCell>
                <mxCell id="J8TFN3CifokqzWTNaohK-38" value="0,n" style="edgeLabel;html=1;align=center;verticalAlign=middle;resizable=0;points=[];" vertex="1" connectable="0" parent="J8TFN3CifokqzWTNaohK-37">
                    <mxGeometry x="-0.8955" y="-1" relative="1" as="geometry">
                        <mxPoint as="offset"/>
                    </mxGeometry>
                </mxCell>
                <mxCell id="J8TFN3CifokqzWTNaohK-39" value="0;n" style="edgeLabel;html=1;align=center;verticalAlign=middle;resizable=0;points=[];" vertex="1" connectable="0" parent="J8TFN3CifokqzWTNaohK-37">
                    <mxGeometry x="0.9177" relative="1" as="geometry">
                        <mxPoint as="offset"/>
                    </mxGeometry>
                </mxCell>
                <mxCell id="J8TFN3CifokqzWTNaohK-40" value="sticky" style="swimlane;fontStyle=0;childLayout=stackLayout;horizontal=1;startSize=26;horizontalStack=0;resizeParent=1;resizeParentMax=0;resizeLast=0;collapsible=1;marginBottom=0;dashed=1;" vertex="1" parent="J8TFN3CifokqzWTNaohK-1">
                    <mxGeometry x="600" y="-30" width="140" height="78" as="geometry"/>
                </mxCell>
                <mxCell id="J8TFN3CifokqzWTNaohK-41" value="title" style="text;strokeColor=none;fillColor=none;align=left;verticalAlign=top;spacingLeft=4;spacingRight=4;overflow=hidden;rotatable=0;points=[[0,0.5],[1,0.5]];portConstraint=eastwest;" vertex="1" parent="J8TFN3CifokqzWTNaohK-40">
                    <mxGeometry y="26" width="140" height="26" as="geometry"/>
                </mxCell>
                <mxCell id="J8TFN3CifokqzWTNaohK-42" value="content" style="text;strokeColor=none;fillColor=none;align=left;verticalAlign=top;spacingLeft=4;spacingRight=4;overflow=hidden;rotatable=0;points=[[0,0.5],[1,0.5]];portConstraint=eastwest;" vertex="1" parent="J8TFN3CifokqzWTNaohK-40">
                    <mxGeometry y="52" width="140" height="26" as="geometry"/>
                </mxCell>
                <mxCell id="J8TFN3CifokqzWTNaohK-43" value="user_sticky" style="swimlane;fontStyle=0;childLayout=stackLayout;horizontal=1;startSize=26;horizontalStack=0;resizeParent=1;resizeParentMax=0;resizeLast=0;collapsible=1;marginBottom=0;" vertex="1" parent="J8TFN3CifokqzWTNaohK-1">
                    <mxGeometry x="420" y="240" width="140" height="52" as="geometry"/>
                </mxCell>
                <mxCell id="J8TFN3CifokqzWTNaohK-44" value="" style="endArrow=block;html=1;endFill=1;fillColor=#e3c800;strokeColor=#B09500;strokeWidth=3;" edge="1" parent="J8TFN3CifokqzWTNaohK-1" source="J8TFN3CifokqzWTNaohK-43" target="J8TFN3CifokqzWTNaohK-40">
                    <mxGeometry width="50" height="50" relative="1" as="geometry">
                        <mxPoint x="380" y="180" as="sourcePoint"/>
                        <mxPoint x="430" y="130" as="targetPoint"/>
                    </mxGeometry>
                </mxCell>
                <mxCell id="J8TFN3CifokqzWTNaohK-45" value="" style="endArrow=none;html=1;strokeWidth=1;endFill=0;startArrow=diamond;startFill=1;" edge="1" parent="J8TFN3CifokqzWTNaohK-1" source="J8TFN3CifokqzWTNaohK-2" target="J8TFN3CifokqzWTNaohK-43">
                    <mxGeometry width="50" height="50" relative="1" as="geometry">
                        <mxPoint x="380" y="180" as="sourcePoint"/>
                        <mxPoint x="430" y="130" as="targetPoint"/>
                        <Array as="points">
                            <mxPoint x="460" y="172"/>
                        </Array>
                    </mxGeometry>
                </mxCell>
                <mxCell id="J8TFN3CifokqzWTNaohK-46" value="0,n" style="edgeLabel;html=1;align=center;verticalAlign=middle;resizable=0;points=[];" vertex="1" connectable="0" parent="J8TFN3CifokqzWTNaohK-45">
                    <mxGeometry x="-0.5683" relative="1" as="geometry">
                        <mxPoint as="offset"/>
                    </mxGeometry>
                </mxCell>
                <mxCell id="J8TFN3CifokqzWTNaohK-47" value="1,1" style="edgeLabel;html=1;align=center;verticalAlign=middle;resizable=0;points=[];" vertex="1" connectable="0" parent="J8TFN3CifokqzWTNaohK-45">
                    <mxGeometry x="0.515" y="-1" relative="1" as="geometry">
                        <mxPoint as="offset"/>
                    </mxGeometry>
                </mxCell>
                <mxCell id="J8TFN3CifokqzWTNaohK-48" value="" style="endArrow=none;html=1;strokeWidth=1;endFill=0;startArrow=diamond;startFill=1;" edge="1" parent="J8TFN3CifokqzWTNaohK-1" source="J8TFN3CifokqzWTNaohK-40" target="J8TFN3CifokqzWTNaohK-2">
                    <mxGeometry width="50" height="50" relative="1" as="geometry">
                        <mxPoint x="350" y="310" as="sourcePoint"/>
                        <mxPoint x="400" y="260" as="targetPoint"/>
                    </mxGeometry>
                </mxCell>
                <mxCell id="J8TFN3CifokqzWTNaohK-49" value="1,1" style="edgeLabel;html=1;align=center;verticalAlign=middle;resizable=0;points=[];" vertex="1" connectable="0" parent="J8TFN3CifokqzWTNaohK-48">
                    <mxGeometry x="-0.5662" y="2" relative="1" as="geometry">
                        <mxPoint as="offset"/>
                    </mxGeometry>
                </mxCell>
                <mxCell id="J8TFN3CifokqzWTNaohK-50" value="0,n" style="edgeLabel;html=1;align=center;verticalAlign=middle;resizable=0;points=[];" vertex="1" connectable="0" parent="J8TFN3CifokqzWTNaohK-48">
                    <mxGeometry x="0.6896" relative="1" as="geometry">
                        <mxPoint as="offset"/>
                    </mxGeometry>
                </mxCell>
                <mxCell id="J8TFN3CifokqzWTNaohK-51" value="butler" style="edgeLabel;html=1;align=center;verticalAlign=middle;resizable=0;points=[];" vertex="1" connectable="0" parent="J8TFN3CifokqzWTNaohK-48">
                    <mxGeometry x="0.1112" y="2" relative="1" as="geometry">
                        <mxPoint as="offset"/>
                    </mxGeometry>
                </mxCell>
                <mxCell id="J8TFN3CifokqzWTNaohK-52" value="food_sticky" style="swimlane;fontStyle=0;childLayout=stackLayout;horizontal=1;startSize=26;horizontalStack=0;resizeParent=1;resizeParentMax=0;resizeLast=0;collapsible=1;marginBottom=0;" vertex="1" parent="J8TFN3CifokqzWTNaohK-1">
                    <mxGeometry x="630" y="240" width="140" height="52" as="geometry"/>
                </mxCell>
                <mxCell id="J8TFN3CifokqzWTNaohK-53" value="" style="endArrow=block;html=1;endFill=1;fillColor=#e3c800;strokeColor=#B09500;strokeWidth=3;" edge="1" parent="J8TFN3CifokqzWTNaohK-1" source="J8TFN3CifokqzWTNaohK-52" target="J8TFN3CifokqzWTNaohK-40">
                    <mxGeometry width="50" height="50" relative="1" as="geometry">
                        <mxPoint x="518.2101167315177" y="250" as="sourcePoint"/>
                        <mxPoint x="652.6848249027239" y="58" as="targetPoint"/>
                    </mxGeometry>
                </mxCell>
                <mxCell id="J8TFN3CifokqzWTNaohK-54" value="" style="endArrow=none;html=1;strokeWidth=1;endFill=0;startArrow=diamond;startFill=1;" edge="1" parent="J8TFN3CifokqzWTNaohK-1" source="J8TFN3CifokqzWTNaohK-26" target="J8TFN3CifokqzWTNaohK-52">
                    <mxGeometry width="50" height="50" relative="1" as="geometry">
                        <mxPoint x="410" y="350" as="sourcePoint"/>
                        <mxPoint x="460" y="300" as="targetPoint"/>
                        <Array as="points">
                            <mxPoint x="520" y="480"/>
                            <mxPoint x="520" y="380"/>
                        </Array>
                    </mxGeometry>
                </mxCell>
                <mxCell id="J8TFN3CifokqzWTNaohK-55" value="0,n" style="edgeLabel;html=1;align=center;verticalAlign=middle;resizable=0;points=[];" vertex="1" connectable="0" parent="J8TFN3CifokqzWTNaohK-54">
                    <mxGeometry x="-0.6928" y="2" relative="1" as="geometry">
                        <mxPoint x="1" as="offset"/>
                    </mxGeometry>
                </mxCell>
                <mxCell id="J8TFN3CifokqzWTNaohK-56" value="1,1" style="edgeLabel;html=1;align=center;verticalAlign=middle;resizable=0;points=[];" vertex="1" connectable="0" parent="J8TFN3CifokqzWTNaohK-54">
                    <mxGeometry x="0.7125" y="-3" relative="1" as="geometry">
                        <mxPoint as="offset"/>
                    </mxGeometry>
                </mxCell>
            </root>
        </mxGraphModel>
    </diagram>
    <diagram id="-T6hxawnfmJRAkQimRha" name="Page-7">
        <mxGraphModel dx="1921" dy="1850" grid="1" gridSize="10" guides="1" tooltips="1" connect="1" arrows="1" fold="1" page="1" pageScale="1" pageWidth="827" pageHeight="1169" math="0" shadow="0">
            <root>
                <mxCell id="JCs2eZqPLGFa3st-oCiz-0"/>
                <mxCell id="JCs2eZqPLGFa3st-oCiz-1" parent="JCs2eZqPLGFa3st-oCiz-0"/>
                <mxCell id="JCs2eZqPLGFa3st-oCiz-3" value="user" style="swimlane;fontStyle=0;childLayout=stackLayout;horizontal=1;startSize=26;horizontalStack=0;resizeParent=1;resizeParentMax=0;resizeLast=0;collapsible=1;marginBottom=0;" vertex="1" parent="JCs2eZqPLGFa3st-oCiz-1">
                    <mxGeometry x="180" y="120" width="140" height="130" as="geometry"/>
                </mxCell>
                <mxCell id="JCs2eZqPLGFa3st-oCiz-4" value="login" style="text;strokeColor=none;fillColor=none;align=left;verticalAlign=top;spacingLeft=4;spacingRight=4;overflow=hidden;rotatable=0;points=[[0,0.5],[1,0.5]];portConstraint=eastwest;" vertex="1" parent="JCs2eZqPLGFa3st-oCiz-3">
                    <mxGeometry y="26" width="140" height="26" as="geometry"/>
                </mxCell>
                <mxCell id="JCs2eZqPLGFa3st-oCiz-5" value="email" style="text;strokeColor=none;fillColor=none;align=left;verticalAlign=top;spacingLeft=4;spacingRight=4;overflow=hidden;rotatable=0;points=[[0,0.5],[1,0.5]];portConstraint=eastwest;" vertex="1" parent="JCs2eZqPLGFa3st-oCiz-3">
                    <mxGeometry y="52" width="140" height="26" as="geometry"/>
                </mxCell>
                <mxCell id="JCs2eZqPLGFa3st-oCiz-6" value="password" style="text;strokeColor=none;fillColor=none;align=left;verticalAlign=top;spacingLeft=4;spacingRight=4;overflow=hidden;rotatable=0;points=[[0,0.5],[1,0.5]];portConstraint=eastwest;" vertex="1" parent="JCs2eZqPLGFa3st-oCiz-3">
                    <mxGeometry y="78" width="140" height="26" as="geometry"/>
                </mxCell>
                <mxCell id="JCs2eZqPLGFa3st-oCiz-7" value="#is_timestamped" style="text;strokeColor=#A50040;fillColor=#d80073;align=left;verticalAlign=top;spacingLeft=4;spacingRight=4;overflow=hidden;rotatable=0;points=[[0,0.5],[1,0.5]];portConstraint=eastwest;fontColor=#ffffff;" vertex="1" parent="JCs2eZqPLGFa3st-oCiz-3">
                    <mxGeometry y="104" width="140" height="26" as="geometry"/>
                </mxCell>
                <mxCell id="JCs2eZqPLGFa3st-oCiz-8" value="user_role" style="swimlane;fontStyle=0;childLayout=stackLayout;horizontal=1;startSize=26;horizontalStack=0;resizeParent=1;resizeParentMax=0;resizeLast=0;collapsible=1;marginBottom=0;" vertex="1" parent="JCs2eZqPLGFa3st-oCiz-1">
                    <mxGeometry x="180" y="-60" width="140" height="78" as="geometry"/>
                </mxCell>
                <mxCell id="JCs2eZqPLGFa3st-oCiz-9" value="#is_content" style="text;strokeColor=#3700CC;fillColor=#6a00ff;align=left;verticalAlign=top;spacingLeft=4;spacingRight=4;overflow=hidden;rotatable=0;points=[[0,0.5],[1,0.5]];portConstraint=eastwest;fontColor=#ffffff;" vertex="1" parent="JCs2eZqPLGFa3st-oCiz-8">
                    <mxGeometry y="26" width="140" height="26" as="geometry"/>
                </mxCell>
                <mxCell id="JCs2eZqPLGFa3st-oCiz-10" value="#is_timestamped" style="text;strokeColor=#A50040;fillColor=#d80073;align=left;verticalAlign=top;spacingLeft=4;spacingRight=4;overflow=hidden;rotatable=0;points=[[0,0.5],[1,0.5]];portConstraint=eastwest;fontColor=#ffffff;" vertex="1" parent="JCs2eZqPLGFa3st-oCiz-8">
                    <mxGeometry y="52" width="140" height="26" as="geometry"/>
                </mxCell>
                <mxCell id="JCs2eZqPLGFa3st-oCiz-11" value="" style="endArrow=none;html=1;endFill=0;startArrow=diamond;startFill=1;" edge="1" parent="JCs2eZqPLGFa3st-oCiz-1" source="JCs2eZqPLGFa3st-oCiz-3" target="JCs2eZqPLGFa3st-oCiz-8">
                    <mxGeometry width="50" height="50" relative="1" as="geometry">
                        <mxPoint x="380" y="380" as="sourcePoint"/>
                        <mxPoint x="430" y="330" as="targetPoint"/>
                    </mxGeometry>
                </mxCell>
                <mxCell id="JCs2eZqPLGFa3st-oCiz-12" value="1,1" style="edgeLabel;html=1;align=center;verticalAlign=middle;resizable=0;points=[];" vertex="1" connectable="0" parent="JCs2eZqPLGFa3st-oCiz-11">
                    <mxGeometry x="-0.7949" y="-1" relative="1" as="geometry">
                        <mxPoint y="-17.59" as="offset"/>
                    </mxGeometry>
                </mxCell>
                <mxCell id="JCs2eZqPLGFa3st-oCiz-13" value="0,n" style="edgeLabel;html=1;align=center;verticalAlign=middle;resizable=0;points=[];" vertex="1" connectable="0" parent="JCs2eZqPLGFa3st-oCiz-11">
                    <mxGeometry x="0.8072" relative="1" as="geometry">
                        <mxPoint as="offset"/>
                    </mxGeometry>
                </mxCell>
                <mxCell id="JCs2eZqPLGFa3st-oCiz-14" value="diet" style="swimlane;fontStyle=0;childLayout=stackLayout;horizontal=1;startSize=26;horizontalStack=0;resizeParent=1;resizeParentMax=0;resizeLast=0;collapsible=1;marginBottom=0;" vertex="1" parent="JCs2eZqPLGFa3st-oCiz-1">
                    <mxGeometry x="50" y="513" width="140" height="104" as="geometry"/>
                </mxCell>
                <mxCell id="JCs2eZqPLGFa3st-oCiz-15" value="importance" style="text;strokeColor=none;fillColor=none;align=left;verticalAlign=top;spacingLeft=4;spacingRight=4;overflow=hidden;rotatable=0;points=[[0,0.5],[1,0.5]];portConstraint=eastwest;" vertex="1" parent="JCs2eZqPLGFa3st-oCiz-14">
                    <mxGeometry y="26" width="140" height="26" as="geometry"/>
                </mxCell>
                <mxCell id="JCs2eZqPLGFa3st-oCiz-16" value="#is_content" style="text;strokeColor=#3700CC;fillColor=#6a00ff;align=left;verticalAlign=top;spacingLeft=4;spacingRight=4;overflow=hidden;rotatable=0;points=[[0,0.5],[1,0.5]];portConstraint=eastwest;fontColor=#ffffff;" vertex="1" parent="JCs2eZqPLGFa3st-oCiz-14">
                    <mxGeometry y="52" width="140" height="26" as="geometry"/>
                </mxCell>
                <mxCell id="JCs2eZqPLGFa3st-oCiz-17" value="#is_timestamped" style="text;strokeColor=#A50040;fillColor=#d80073;align=left;verticalAlign=top;spacingLeft=4;spacingRight=4;overflow=hidden;rotatable=0;points=[[0,0.5],[1,0.5]];portConstraint=eastwest;fontColor=#ffffff;" vertex="1" parent="JCs2eZqPLGFa3st-oCiz-14">
                    <mxGeometry y="78" width="140" height="26" as="geometry"/>
                </mxCell>
                <mxCell id="JCs2eZqPLGFa3st-oCiz-18" value="" style="endArrow=none;html=1;endFill=0;startArrow=diamond;startFill=1;" edge="1" parent="JCs2eZqPLGFa3st-oCiz-1" source="JCs2eZqPLGFa3st-oCiz-3" target="JCs2eZqPLGFa3st-oCiz-14">
                    <mxGeometry width="50" height="50" relative="1" as="geometry">
                        <mxPoint x="320" y="522.0039130434783" as="sourcePoint"/>
                        <mxPoint x="410" y="510.65608695652173" as="targetPoint"/>
                    </mxGeometry>
                </mxCell>
                <mxCell id="JCs2eZqPLGFa3st-oCiz-19" value="0,n" style="edgeLabel;html=1;align=center;verticalAlign=middle;resizable=0;points=[];" vertex="1" connectable="0" parent="JCs2eZqPLGFa3st-oCiz-18">
                    <mxGeometry x="-0.5955" y="3" relative="1" as="geometry">
                        <mxPoint as="offset"/>
                    </mxGeometry>
                </mxCell>
                <mxCell id="JCs2eZqPLGFa3st-oCiz-20" value="0,n" style="edgeLabel;html=1;align=center;verticalAlign=middle;resizable=0;points=[];" vertex="1" connectable="0" parent="JCs2eZqPLGFa3st-oCiz-18">
                    <mxGeometry x="0.7133" relative="1" as="geometry">
                        <mxPoint as="offset"/>
                    </mxGeometry>
                </mxCell>
                <mxCell id="JCs2eZqPLGFa3st-oCiz-21" value="preference" style="swimlane;fontStyle=0;childLayout=stackLayout;horizontal=1;startSize=26;horizontalStack=0;resizeParent=1;resizeParentMax=0;resizeLast=0;collapsible=1;marginBottom=0;" vertex="1" parent="JCs2eZqPLGFa3st-oCiz-1">
                    <mxGeometry x="290" y="513" width="140" height="104" as="geometry"/>
                </mxCell>
                <mxCell id="JCs2eZqPLGFa3st-oCiz-22" value="rank" style="text;strokeColor=none;fillColor=none;align=left;verticalAlign=top;spacingLeft=4;spacingRight=4;overflow=hidden;rotatable=0;points=[[0,0.5],[1,0.5]];portConstraint=eastwest;" vertex="1" parent="JCs2eZqPLGFa3st-oCiz-21">
                    <mxGeometry y="26" width="140" height="26" as="geometry"/>
                </mxCell>
                <mxCell id="JCs2eZqPLGFa3st-oCiz-23" value="#is_content" style="text;strokeColor=#3700CC;fillColor=#6a00ff;align=left;verticalAlign=top;spacingLeft=4;spacingRight=4;overflow=hidden;rotatable=0;points=[[0,0.5],[1,0.5]];portConstraint=eastwest;fontColor=#ffffff;" vertex="1" parent="JCs2eZqPLGFa3st-oCiz-21">
                    <mxGeometry y="52" width="140" height="26" as="geometry"/>
                </mxCell>
                <mxCell id="JCs2eZqPLGFa3st-oCiz-24" value="#is_timestamped" style="text;strokeColor=#A50040;fillColor=#d80073;align=left;verticalAlign=top;spacingLeft=4;spacingRight=4;overflow=hidden;rotatable=0;points=[[0,0.5],[1,0.5]];portConstraint=eastwest;fontColor=#ffffff;" vertex="1" parent="JCs2eZqPLGFa3st-oCiz-21">
                    <mxGeometry y="78" width="140" height="26" as="geometry"/>
                </mxCell>
                <mxCell id="JCs2eZqPLGFa3st-oCiz-25" value="" style="endArrow=none;html=1;endFill=0;startArrow=diamond;startFill=1;" edge="1" parent="JCs2eZqPLGFa3st-oCiz-1" source="JCs2eZqPLGFa3st-oCiz-3" target="JCs2eZqPLGFa3st-oCiz-21">
                    <mxGeometry width="50" height="50" relative="1" as="geometry">
                        <mxPoint x="227.3429951690821" y="424" as="sourcePoint"/>
                        <mxPoint x="154.49275362318838" y="540" as="targetPoint"/>
                    </mxGeometry>
                </mxCell>
                <mxCell id="JCs2eZqPLGFa3st-oCiz-26" value="0,n" style="edgeLabel;html=1;align=center;verticalAlign=middle;resizable=0;points=[];" vertex="1" connectable="0" parent="JCs2eZqPLGFa3st-oCiz-25">
                    <mxGeometry x="-0.5955" y="3" relative="1" as="geometry">
                        <mxPoint as="offset"/>
                    </mxGeometry>
                </mxCell>
                <mxCell id="JCs2eZqPLGFa3st-oCiz-27" value="1,1" style="edgeLabel;html=1;align=center;verticalAlign=middle;resizable=0;points=[];" vertex="1" connectable="0" parent="JCs2eZqPLGFa3st-oCiz-25">
                    <mxGeometry x="0.7133" relative="1" as="geometry">
                        <mxPoint as="offset"/>
                    </mxGeometry>
                </mxCell>
                <mxCell id="JCs2eZqPLGFa3st-oCiz-28" value="food" style="swimlane;fontStyle=0;childLayout=stackLayout;horizontal=1;startSize=26;horizontalStack=0;resizeParent=1;resizeParentMax=0;resizeLast=0;collapsible=1;marginBottom=0;" vertex="1" parent="JCs2eZqPLGFa3st-oCiz-1">
                    <mxGeometry x="530" y="526" width="140" height="78" as="geometry"/>
                </mxCell>
                <mxCell id="JCs2eZqPLGFa3st-oCiz-29" value="#is_content" style="text;strokeColor=#3700CC;fillColor=#6a00ff;align=left;verticalAlign=top;spacingLeft=4;spacingRight=4;overflow=hidden;rotatable=0;points=[[0,0.5],[1,0.5]];portConstraint=eastwest;fontColor=#ffffff;" vertex="1" parent="JCs2eZqPLGFa3st-oCiz-28">
                    <mxGeometry y="26" width="140" height="26" as="geometry"/>
                </mxCell>
                <mxCell id="JCs2eZqPLGFa3st-oCiz-30" value="#is_timestamped" style="text;strokeColor=#A50040;fillColor=#d80073;align=left;verticalAlign=top;spacingLeft=4;spacingRight=4;overflow=hidden;rotatable=0;points=[[0,0.5],[1,0.5]];portConstraint=eastwest;fontColor=#ffffff;" vertex="1" parent="JCs2eZqPLGFa3st-oCiz-28">
                    <mxGeometry y="52" width="140" height="26" as="geometry"/>
                </mxCell>
                <mxCell id="JCs2eZqPLGFa3st-oCiz-31" value="" style="endArrow=none;html=1;endFill=0;startArrow=diamond;startFill=1;" edge="1" parent="JCs2eZqPLGFa3st-oCiz-1" source="JCs2eZqPLGFa3st-oCiz-21" target="JCs2eZqPLGFa3st-oCiz-28">
                    <mxGeometry width="50" height="50" relative="1" as="geometry">
                        <mxPoint x="280" y="500" as="sourcePoint"/>
                        <mxPoint x="330" y="450" as="targetPoint"/>
                    </mxGeometry>
                </mxCell>
                <mxCell id="JCs2eZqPLGFa3st-oCiz-32" value="0,1" style="edgeLabel;html=1;align=center;verticalAlign=middle;resizable=0;points=[];" vertex="1" connectable="0" parent="JCs2eZqPLGFa3st-oCiz-31">
                    <mxGeometry x="-0.64" y="-2" relative="1" as="geometry">
                        <mxPoint as="offset"/>
                    </mxGeometry>
                </mxCell>
                <mxCell id="JCs2eZqPLGFa3st-oCiz-33" value="0,n" style="edgeLabel;html=1;align=center;verticalAlign=middle;resizable=0;points=[];" vertex="1" connectable="0" parent="JCs2eZqPLGFa3st-oCiz-31">
                    <mxGeometry x="0.6984" y="-1" relative="1" as="geometry">
                        <mxPoint as="offset"/>
                    </mxGeometry>
                </mxCell>
                <mxCell id="JCs2eZqPLGFa3st-oCiz-34" value="diet_type" style="swimlane;fontStyle=0;childLayout=stackLayout;horizontal=1;startSize=26;horizontalStack=0;resizeParent=1;resizeParentMax=0;resizeLast=0;collapsible=1;marginBottom=0;" vertex="1" parent="JCs2eZqPLGFa3st-oCiz-1">
                    <mxGeometry x="-50" y="310" width="140" height="104" as="geometry"/>
                </mxCell>
                <mxCell id="JCs2eZqPLGFa3st-oCiz-35" value="importance" style="text;strokeColor=none;fillColor=none;align=left;verticalAlign=top;spacingLeft=4;spacingRight=4;overflow=hidden;rotatable=0;points=[[0,0.5],[1,0.5]];portConstraint=eastwest;" vertex="1" parent="JCs2eZqPLGFa3st-oCiz-34">
                    <mxGeometry y="26" width="140" height="26" as="geometry"/>
                </mxCell>
                <mxCell id="JCs2eZqPLGFa3st-oCiz-36" value="#is_content" style="text;strokeColor=#3700CC;fillColor=#6a00ff;align=left;verticalAlign=top;spacingLeft=4;spacingRight=4;overflow=hidden;rotatable=0;points=[[0,0.5],[1,0.5]];portConstraint=eastwest;fontColor=#ffffff;" vertex="1" parent="JCs2eZqPLGFa3st-oCiz-34">
                    <mxGeometry y="52" width="140" height="26" as="geometry"/>
                </mxCell>
                <mxCell id="JCs2eZqPLGFa3st-oCiz-37" value="#is_timestamped" style="text;strokeColor=#A50040;fillColor=#d80073;align=left;verticalAlign=top;spacingLeft=4;spacingRight=4;overflow=hidden;rotatable=0;points=[[0,0.5],[1,0.5]];portConstraint=eastwest;fontColor=#ffffff;" vertex="1" parent="JCs2eZqPLGFa3st-oCiz-34">
                    <mxGeometry y="78" width="140" height="26" as="geometry"/>
                </mxCell>
                <mxCell id="JCs2eZqPLGFa3st-oCiz-38" value="" style="endArrow=none;html=1;endFill=0;startArrow=diamond;startFill=1;" edge="1" parent="JCs2eZqPLGFa3st-oCiz-1" source="JCs2eZqPLGFa3st-oCiz-14" target="JCs2eZqPLGFa3st-oCiz-34">
                    <mxGeometry width="50" height="50" relative="1" as="geometry">
                        <mxPoint x="330" y="420" as="sourcePoint"/>
                        <mxPoint x="380" y="370" as="targetPoint"/>
                    </mxGeometry>
                </mxCell>
                <mxCell id="JCs2eZqPLGFa3st-oCiz-39" value="" style="endArrow=none;html=1;endFill=0;startArrow=diamond;startFill=1;" edge="1" parent="JCs2eZqPLGFa3st-oCiz-1" source="JCs2eZqPLGFa3st-oCiz-28" target="JCs2eZqPLGFa3st-oCiz-28">
                    <mxGeometry width="50" height="50" relative="1" as="geometry">
                        <mxPoint x="710" y="510" as="sourcePoint"/>
                        <mxPoint x="730" y="580" as="targetPoint"/>
                        <Array as="points">
                            <mxPoint x="600" y="430"/>
                            <mxPoint x="730" y="430"/>
                            <mxPoint x="730" y="565"/>
                        </Array>
                    </mxGeometry>
                </mxCell>
                <mxCell id="JCs2eZqPLGFa3st-oCiz-40" value="0,n" style="edgeLabel;html=1;align=center;verticalAlign=middle;resizable=0;points=[];" vertex="1" connectable="0" parent="JCs2eZqPLGFa3st-oCiz-39">
                    <mxGeometry x="-0.8955" y="-1" relative="1" as="geometry">
                        <mxPoint as="offset"/>
                    </mxGeometry>
                </mxCell>
                <mxCell id="JCs2eZqPLGFa3st-oCiz-41" value="0;n" style="edgeLabel;html=1;align=center;verticalAlign=middle;resizable=0;points=[];" vertex="1" connectable="0" parent="JCs2eZqPLGFa3st-oCiz-39">
                    <mxGeometry x="0.9177" relative="1" as="geometry">
                        <mxPoint as="offset"/>
                    </mxGeometry>
                </mxCell>
                <mxCell id="JCs2eZqPLGFa3st-oCiz-42" value="sticky" style="swimlane;fontStyle=0;childLayout=stackLayout;horizontal=1;startSize=26;horizontalStack=0;resizeParent=1;resizeParentMax=0;resizeLast=0;collapsible=1;marginBottom=0;dashed=1;" vertex="1" parent="JCs2eZqPLGFa3st-oCiz-1">
                    <mxGeometry x="530" width="140" height="104" as="geometry"/>
                </mxCell>
                <mxCell id="JCs2eZqPLGFa3st-oCiz-43" value="title" style="text;strokeColor=none;fillColor=none;align=left;verticalAlign=top;spacingLeft=4;spacingRight=4;overflow=hidden;rotatable=0;points=[[0,0.5],[1,0.5]];portConstraint=eastwest;" vertex="1" parent="JCs2eZqPLGFa3st-oCiz-42">
                    <mxGeometry y="26" width="140" height="26" as="geometry"/>
                </mxCell>
                <mxCell id="JCs2eZqPLGFa3st-oCiz-44" value="content" style="text;strokeColor=none;fillColor=none;align=left;verticalAlign=top;spacingLeft=4;spacingRight=4;overflow=hidden;rotatable=0;points=[[0,0.5],[1,0.5]];portConstraint=eastwest;" vertex="1" parent="JCs2eZqPLGFa3st-oCiz-42">
                    <mxGeometry y="52" width="140" height="26" as="geometry"/>
                </mxCell>
                <mxCell id="JCs2eZqPLGFa3st-oCiz-45" value="#is_timestamped" style="text;strokeColor=#A50040;fillColor=#d80073;align=left;verticalAlign=top;spacingLeft=4;spacingRight=4;overflow=hidden;rotatable=0;points=[[0,0.5],[1,0.5]];portConstraint=eastwest;fontColor=#ffffff;" vertex="1" parent="JCs2eZqPLGFa3st-oCiz-42">
                    <mxGeometry y="78" width="140" height="26" as="geometry"/>
                </mxCell>
                <mxCell id="JCs2eZqPLGFa3st-oCiz-46" value="user_sticky" style="swimlane;fontStyle=0;childLayout=stackLayout;horizontal=1;startSize=26;horizontalStack=0;resizeParent=1;resizeParentMax=0;resizeLast=0;collapsible=1;marginBottom=0;fillColor=#60a917;strokeColor=#2D7600;fontColor=#ffffff;" vertex="1" parent="JCs2eZqPLGFa3st-oCiz-1">
                    <mxGeometry x="420" y="240" width="140" height="52" as="geometry"/>
                </mxCell>
                <mxCell id="JCs2eZqPLGFa3st-oCiz-47" value="" style="endArrow=block;html=1;endFill=1;fillColor=#e3c800;strokeColor=#B09500;strokeWidth=3;" edge="1" parent="JCs2eZqPLGFa3st-oCiz-1" source="JCs2eZqPLGFa3st-oCiz-46" target="JCs2eZqPLGFa3st-oCiz-42">
                    <mxGeometry width="50" height="50" relative="1" as="geometry">
                        <mxPoint x="380" y="180" as="sourcePoint"/>
                        <mxPoint x="430" y="130" as="targetPoint"/>
                    </mxGeometry>
                </mxCell>
                <mxCell id="JCs2eZqPLGFa3st-oCiz-48" value="" style="endArrow=none;html=1;strokeWidth=1;endFill=0;startArrow=diamond;startFill=1;" edge="1" parent="JCs2eZqPLGFa3st-oCiz-1" source="JCs2eZqPLGFa3st-oCiz-3" target="JCs2eZqPLGFa3st-oCiz-46">
                    <mxGeometry width="50" height="50" relative="1" as="geometry">
                        <mxPoint x="380" y="180" as="sourcePoint"/>
                        <mxPoint x="430" y="130" as="targetPoint"/>
                        <Array as="points">
                            <mxPoint x="490" y="181"/>
                        </Array>
                    </mxGeometry>
                </mxCell>
                <mxCell id="JCs2eZqPLGFa3st-oCiz-49" value="0,n" style="edgeLabel;html=1;align=center;verticalAlign=middle;resizable=0;points=[];" vertex="1" connectable="0" parent="JCs2eZqPLGFa3st-oCiz-48">
                    <mxGeometry x="-0.5683" relative="1" as="geometry">
                        <mxPoint as="offset"/>
                    </mxGeometry>
                </mxCell>
                <mxCell id="JCs2eZqPLGFa3st-oCiz-50" value="1,1" style="edgeLabel;html=1;align=center;verticalAlign=middle;resizable=0;points=[];" vertex="1" connectable="0" parent="JCs2eZqPLGFa3st-oCiz-48">
                    <mxGeometry x="0.515" y="-1" relative="1" as="geometry">
                        <mxPoint as="offset"/>
                    </mxGeometry>
                </mxCell>
                <mxCell id="JCs2eZqPLGFa3st-oCiz-51" value="" style="endArrow=none;html=1;strokeWidth=1;endFill=0;startArrow=diamond;startFill=1;" edge="1" parent="JCs2eZqPLGFa3st-oCiz-1" source="JCs2eZqPLGFa3st-oCiz-42" target="JCs2eZqPLGFa3st-oCiz-3">
                    <mxGeometry width="50" height="50" relative="1" as="geometry">
                        <mxPoint x="350" y="310" as="sourcePoint"/>
                        <mxPoint x="400" y="260" as="targetPoint"/>
                    </mxGeometry>
                </mxCell>
                <mxCell id="JCs2eZqPLGFa3st-oCiz-52" value="1,1" style="edgeLabel;html=1;align=center;verticalAlign=middle;resizable=0;points=[];" vertex="1" connectable="0" parent="JCs2eZqPLGFa3st-oCiz-51">
                    <mxGeometry x="-0.5662" y="2" relative="1" as="geometry">
                        <mxPoint as="offset"/>
                    </mxGeometry>
                </mxCell>
                <mxCell id="JCs2eZqPLGFa3st-oCiz-53" value="0,n" style="edgeLabel;html=1;align=center;verticalAlign=middle;resizable=0;points=[];" vertex="1" connectable="0" parent="JCs2eZqPLGFa3st-oCiz-51">
                    <mxGeometry x="0.6896" relative="1" as="geometry">
                        <mxPoint as="offset"/>
                    </mxGeometry>
                </mxCell>
                <mxCell id="JCs2eZqPLGFa3st-oCiz-54" value="butler" style="edgeLabel;html=1;align=center;verticalAlign=middle;resizable=0;points=[];" vertex="1" connectable="0" parent="JCs2eZqPLGFa3st-oCiz-51">
                    <mxGeometry x="0.1112" y="2" relative="1" as="geometry">
                        <mxPoint as="offset"/>
                    </mxGeometry>
                </mxCell>
                <mxCell id="JCs2eZqPLGFa3st-oCiz-55" value="food_sticky" style="swimlane;fontStyle=0;childLayout=stackLayout;horizontal=1;startSize=26;horizontalStack=0;resizeParent=1;resizeParentMax=0;resizeLast=0;collapsible=1;marginBottom=0;fillColor=#60a917;strokeColor=#2D7600;fontColor=#ffffff;" vertex="1" parent="JCs2eZqPLGFa3st-oCiz-1">
                    <mxGeometry x="630" y="240" width="140" height="52" as="geometry"/>
                </mxCell>
                <mxCell id="JCs2eZqPLGFa3st-oCiz-56" value="" style="endArrow=block;html=1;endFill=1;fillColor=#e3c800;strokeColor=#B09500;strokeWidth=3;" edge="1" parent="JCs2eZqPLGFa3st-oCiz-1" source="JCs2eZqPLGFa3st-oCiz-55" target="JCs2eZqPLGFa3st-oCiz-42">
                    <mxGeometry width="50" height="50" relative="1" as="geometry">
                        <mxPoint x="518.2101167315177" y="250" as="sourcePoint"/>
                        <mxPoint x="652.6848249027239" y="58" as="targetPoint"/>
                    </mxGeometry>
                </mxCell>
                <mxCell id="JCs2eZqPLGFa3st-oCiz-57" value="" style="endArrow=none;html=1;strokeWidth=1;endFill=0;startArrow=diamond;startFill=1;" edge="1" parent="JCs2eZqPLGFa3st-oCiz-1" source="JCs2eZqPLGFa3st-oCiz-28" target="JCs2eZqPLGFa3st-oCiz-55">
                    <mxGeometry width="50" height="50" relative="1" as="geometry">
                        <mxPoint x="410" y="350" as="sourcePoint"/>
                        <mxPoint x="460" y="300" as="targetPoint"/>
                        <Array as="points">
                            <mxPoint x="520" y="480"/>
                            <mxPoint x="520" y="380"/>
                        </Array>
                    </mxGeometry>
                </mxCell>
                <mxCell id="JCs2eZqPLGFa3st-oCiz-58" value="0,n" style="edgeLabel;html=1;align=center;verticalAlign=middle;resizable=0;points=[];" vertex="1" connectable="0" parent="JCs2eZqPLGFa3st-oCiz-57">
                    <mxGeometry x="-0.6928" y="2" relative="1" as="geometry">
                        <mxPoint x="1" as="offset"/>
                    </mxGeometry>
                </mxCell>
                <mxCell id="JCs2eZqPLGFa3st-oCiz-59" value="1,1" style="edgeLabel;html=1;align=center;verticalAlign=middle;resizable=0;points=[];" vertex="1" connectable="0" parent="JCs2eZqPLGFa3st-oCiz-57">
                    <mxGeometry x="0.7125" y="-3" relative="1" as="geometry">
                        <mxPoint as="offset"/>
                    </mxGeometry>
                </mxCell>
                <mxCell id="JCs2eZqPLGFa3st-oCiz-60" value="is_content" style="swimlane;fontStyle=0;childLayout=stackLayout;horizontal=1;startSize=26;horizontalStack=0;resizeParent=1;resizeParentMax=0;resizeLast=0;collapsible=1;marginBottom=0;dashed=1;fillColor=#6a00ff;strokeColor=#3700CC;fontColor=#ffffff;" vertex="1" parent="JCs2eZqPLGFa3st-oCiz-1">
                    <mxGeometry x="890" y="-30" width="140" height="78" as="geometry"/>
                </mxCell>
                <mxCell id="JCs2eZqPLGFa3st-oCiz-61" value="name" style="text;strokeColor=none;fillColor=none;align=left;verticalAlign=top;spacingLeft=4;spacingRight=4;overflow=hidden;rotatable=0;points=[[0,0.5],[1,0.5]];portConstraint=eastwest;" vertex="1" parent="JCs2eZqPLGFa3st-oCiz-60">
                    <mxGeometry y="26" width="140" height="26" as="geometry"/>
                </mxCell>
                <mxCell id="JCs2eZqPLGFa3st-oCiz-62" value="description" style="text;strokeColor=none;fillColor=none;align=left;verticalAlign=top;spacingLeft=4;spacingRight=4;overflow=hidden;rotatable=0;points=[[0,0.5],[1,0.5]];portConstraint=eastwest;" vertex="1" parent="JCs2eZqPLGFa3st-oCiz-60">
                    <mxGeometry y="52" width="140" height="26" as="geometry"/>
                </mxCell>
                <mxCell id="JCs2eZqPLGFa3st-oCiz-63" value="is_timestamped" style="swimlane;fontStyle=0;childLayout=stackLayout;horizontal=1;startSize=26;horizontalStack=0;resizeParent=1;resizeParentMax=0;resizeLast=0;collapsible=1;marginBottom=0;dashed=1;fillColor=#d80073;strokeColor=#A50040;fontColor=#ffffff;" vertex="1" parent="JCs2eZqPLGFa3st-oCiz-1">
                    <mxGeometry x="890" y="60" width="140" height="78" as="geometry"/>
                </mxCell>
                <mxCell id="JCs2eZqPLGFa3st-oCiz-64" value="created_at" style="text;strokeColor=none;fillColor=none;align=left;verticalAlign=top;spacingLeft=4;spacingRight=4;overflow=hidden;rotatable=0;points=[[0,0.5],[1,0.5]];portConstraint=eastwest;" vertex="1" parent="JCs2eZqPLGFa3st-oCiz-63">
                    <mxGeometry y="26" width="140" height="26" as="geometry"/>
                </mxCell>
                <mxCell id="JCs2eZqPLGFa3st-oCiz-65" value="updated_at" style="text;strokeColor=none;fillColor=none;align=left;verticalAlign=top;spacingLeft=4;spacingRight=4;overflow=hidden;rotatable=0;points=[[0,0.5],[1,0.5]];portConstraint=eastwest;" vertex="1" parent="JCs2eZqPLGFa3st-oCiz-63">
                    <mxGeometry y="52" width="140" height="26" as="geometry"/>
                </mxCell>
            </root>
        </mxGraphModel>
    </diagram>
</mxfile>